<?xml version="1.0" encoding="utf-8"?>
<!-- Generator: Adobe Illustrator 27.2.0, SVG Export Plug-In . SVG Version: 6.00 Build 0)  -->
<svg version="1.1" id="Layer_1" xmlns="http://www.w3.org/2000/svg" xmlns:xlink="http://www.w3.org/1999/xlink" x="0px" y="0px"
	 viewBox="0 0 495.57 290.81" style="enable-background:new 0 0 495.57 290.81;" xml:space="preserve">
<style type="text/css">
	.st0{fill:#FFFFFF;}
</style>
<g>
	<g>
		<g>
			<path class="st0" d="M145.53,127l-16.91-13.03c-1.59-1.22-3.01-2.64-4.23-4.23l-13.03-16.91c-9.29-12.08-27.52-12.08-36.83,0
				L61.5,109.73c-1.22,1.59-2.65,3.01-4.23,4.23L40.36,127c-12.08,9.29-12.08,27.52,0,36.83l16.91,13.02
				c1.58,1.22,3.01,2.65,4.23,4.23l13.02,16.91c9.31,12.08,27.54,12.08,36.83,0l13.03-16.91c1.22-1.58,2.64-3.01,4.23-4.23
				l16.91-13.02C157.61,154.52,157.61,136.29,145.53,127z M120.34,172.81c-15.13,15.13-39.67,15.13-54.8,0
				c-15.13-15.13-15.13-39.67,0-54.8c15.13-15.13,39.67-15.13,54.8,0C135.48,133.14,135.48,157.68,120.34,172.81z"/>
			<g>
				<circle class="st0" cx="92.94" cy="145.41" r="25.4"/>
			</g>
		</g>
		<g>
			<g>
				<path class="st0" d="M168.23,176.8v-43.22c0-5.2,1.56-9.71,4.62-13.39c3.04-3.65,6.76-5.51,11.03-5.51h42.01v13.51h-37.97
					c-1.27,0-2.36,0.54-3.26,1.62c-0.87,1.04-1.31,2.31-1.31,3.76v5.43h41.54v13.52h-41.54v24.27H168.23z"/>
			</g>
			<g>
				<path class="st0" d="M246.42,176.8c-4.31,0-8.02-1.85-11.03-5.5c-3.07-3.68-4.63-8.19-4.63-13.39v-43.22h15.12v38.38
					c0,2.77,0.84,5.21,2.49,7.23c1.69,1.99,3.76,2.99,6.16,2.99h18.23c2.37,0,4.42-1,6.11-2.98c1.66-2.03,2.5-4.47,2.5-7.24v-38.38
					h15.17v43.22c0,5.24-1.57,9.74-4.67,13.38c-3.05,3.66-6.76,5.51-11.03,5.51H246.42z"/>
			</g>
			<g>
				<path class="st0" d="M374.47,176.8v-39.58c0-0.77-0.25-1.46-0.74-2.05l-0.01-0.02c-0.52-0.57-1.13-0.86-1.82-0.86
					c-0.36,0-0.71,0.07-1.03,0.22l-0.02,0.01c-0.22,0.11-0.42,0.26-0.61,0.45h-0.17l-17.43,41.82h-14.15l-7.98-19.1l-9.39-22.47
					l-0.05-0.06c-0.24-0.29-0.53-0.51-0.86-0.66c-0.32-0.14-0.65-0.22-0.98-0.22c-0.73,0-1.36,0.29-1.87,0.86l-0.01,0.02l-0.01,0.02
					c-0.45,0.59-0.68,1.27-0.68,2.04v39.58h-15.12v-46.87c0-4.52,1.35-8.45,4.01-11.68c2.66-3.16,5.89-4.76,9.61-4.76h1.04
					c4.28,0,7.99,1.85,11.03,5.51c1.69,2.03,2.93,4.32,3.7,6.82l0.01,0.02l14.6,35.11l14.61-35.11l0.01-0.02
					c0.77-2.5,2.03-4.8,3.74-6.82c3.05-3.66,6.76-5.51,11.03-5.51h1c3.74,0,6.97,1.6,9.61,4.76c2.69,3.23,4.05,7.16,4.05,11.68
					v46.87H374.47z"/>
			</g>
			<g>
				<path class="st0" d="M410.11,176.8c-4.31,0-8.02-1.85-11.03-5.5c-3.07-3.68-4.63-8.19-4.63-13.39v-24.33
					c0-5.2,1.56-9.71,4.62-13.39c3.04-3.65,6.76-5.51,11.03-5.51h38.51c4.27,0,7.99,1.85,11.03,5.51c3.07,3.68,4.62,8.19,4.62,13.39
					v24.33c0,5.24-1.55,9.74-4.62,13.39c-3.05,3.65-6.76,5.51-11.03,5.51H410.11z M418.23,128.2c-2.4,0-4.47,1.02-6.16,3.04
					c-1.66,1.99-2.5,4.42-2.5,7.24v14.59c0,2.77,0.84,5.21,2.49,7.23c1.69,1.99,3.76,2.99,6.16,2.99h22.27c2.37,0,4.44-1,6.15-2.98
					c1.67-2.04,2.51-4.47,2.51-7.24v-14.59c0-2.81-0.84-5.25-2.5-7.24c-1.72-2.02-3.79-3.04-6.16-3.04H418.23z"/>
			</g>
		</g>
	</g>
</g>
</svg>
