<?xml version="1.0" encoding="utf-8"?>
<!-- Generator: Adobe Illustrator 27.2.0, SVG Export Plug-In . SVG Version: 6.00 Build 0)  -->
<svg version="1.1" id="Layer_1" xmlns="http://www.w3.org/2000/svg" xmlns:xlink="http://www.w3.org/1999/xlink" x="0px" y="0px"
	 viewBox="0 0 495.6 290.8" style="enable-background:new 0 0 495.6 290.8;" xml:space="preserve">
<style type="text/css">
	.st0{fill:#FFFFFF;}
</style>
<g>
	<path class="st0" d="M194.1,112.8c-1.1,1.3-2.5,2-4.2,2c-1.8,0-3.2-0.5-4.2-1.5c-1-1-1.5-2-1.5-3c0-1.4,0.3-2.3,0.8-2.7
		c0.5-0.4,0.8-1.1,0.8-2.1c0-1-0.3-1.8-0.9-2.3c-0.6-0.5-1.5-0.8-2.5-0.8c-0.8,0-1.6,0.1-2.4,0.2c-0.8,0.1-1.7,0.5-2.7,1.1
		c-0.9,0.6-1.9,1.6-2.8,2.8c-0.9,1.3-1.9,3-2.9,5.1c4,5.2,6.1,11.3,6.1,18.2c0,4.2-0.8,8.1-2.5,11.8c-1.6,3.7-3.9,6.9-6.7,9.7
		c-2.8,2.8-6.2,5-10,6.5c-3.8,1.6-7.8,2.4-12.1,2.4c-4.7,0-9.1-0.9-13.3-2.8c-4.2-1.9-7.6-4.5-10.2-7.8c-1.8,1.3-3.3,2.8-4.5,4.7
		c-1.2,1.9-1.8,4.5-1.8,7.8c0,5.4,1.3,9.3,3.9,11.7c2.6,2.3,7,3.5,13.2,3.5h21.8c12.5,0,22,2.1,28.4,6.4c6.4,4.2,9.6,11.6,9.6,22.1
		c0,5.9-1.5,11.2-4.4,15.7c-2.9,4.5-6.6,8.3-11,11.3c-4.4,3-9.3,5.3-14.7,6.8c-5.4,1.5-10.6,2.3-15.7,2.3c-6.5,0-12.3-0.7-17.6-2.1
		c-5.3-1.4-9.8-3.3-13.6-5.7c-3.7-2.4-6.6-5.2-8.7-8.3c-2.1-3.2-3.1-6.5-3.1-10.1c0-2.7,0.5-5.3,1.5-8c1-2.7,2.4-5.2,4.1-7.5
		c1.7-2.3,3.7-4.4,6.1-6.1c2.3-1.7,4.9-2.9,7.7-3.7c-5.1-1.4-8.9-3.6-11.7-6.6c-2.7-3-4.1-7-4.1-11.8c0-5.7,1.2-10.3,3.6-13.8
		c2.4-3.5,5.8-6.7,10.2-9.6c-2.2-2.5-3.8-5.4-5-8.6c-1.2-3.2-1.8-6.6-1.8-10.1c0-4.2,0.8-8.1,2.5-11.9c1.6-3.7,3.9-7,6.7-9.8
		c2.8-2.8,6.1-5,9.9-6.5c3.7-1.6,7.7-2.4,12-2.4c5.1,0,9.6,1,13.8,3c4.1,2,7.6,4.8,10.5,8.3c1.6-3.3,3.8-6,6.4-8.2
		c2.7-2.1,5.8-3.2,9.5-3.2c2.5,0,4.7,0.8,6.5,2.3c1.8,1.5,2.8,3.7,2.8,6.4C195.8,110,195.2,111.5,194.1,112.8z M183.7,205.2
		c-0.8-2.7-2-5.1-3.6-7.1c-1.6-2-3.8-3.6-6.4-4.8c-2.6-1.2-5.7-1.8-9.4-1.8h-32.4c-0.9,0-1.9,0-3-0.1c-1.1-0.1-2.2-0.2-3-0.5
		c-2.5,1.6-4.7,4.4-6.4,8.2c-1.8,3.8-2.7,8.6-2.7,14.4c0,5.1,0.7,9.3,2.1,12.8c1.4,3.5,3.4,6.3,6.1,8.4c2.7,2.1,5.9,3.7,9.8,4.6
		c3.9,0.9,8.2,1.4,13,1.4c4.6,0,9.1-0.6,13.6-1.7c4.5-1.1,8.5-2.8,12-5c3.5-2.2,6.3-5,8.4-8.3c2.1-3.4,3.2-7.2,3.2-11.7
		C184.8,210.9,184.4,207.9,183.7,205.2z M161.9,112.7c-1-4.2-2.7-7.3-4.9-9.3c-1.4-1.1-3-1.9-4.7-2.3c-1.8-0.4-3.7-0.6-5.9-0.6
		c-2,0-3.9,0.2-5.6,0.6c-1.7,0.4-3.3,1.1-4.6,2.3c-2.2,2-3.7,5.1-4.7,9.3c-1,4.2-1.5,9.9-1.5,17.1c0,4,0.1,7.5,0.4,10.3
		c0.3,2.8,0.6,5.3,1.1,7.3c0.5,2,1.1,3.7,1.9,5c0.8,1.3,1.7,2.5,2.8,3.5c1.4,1.3,2.9,2.1,4.6,2.6c1.7,0.4,3.6,0.7,5.6,0.7
		c2.1,0,4.1-0.2,5.9-0.7c1.8-0.4,3.3-1.3,4.7-2.6c1.1-1,2.1-2.2,2.9-3.5c0.8-1.3,1.5-3,2-5c0.5-2,0.9-4.5,1.1-7.3
		c0.3-2.8,0.4-6.3,0.4-10.3C163.4,122.6,162.9,116.9,161.9,112.7z"/>
	<path class="st0" d="M287.3,184.8c-0.2,0-0.4-0.2-0.4-0.5c0-0.4,0.1-0.5,0.4-0.5h9.9c0.8,0,1.3-0.2,1.3-0.7V53.9
		c0-0.5-0.4-0.7-1.3-0.7h-9.9c-0.2,0-0.4-0.2-0.4-0.5c0-0.4,0.1-0.5,0.4-0.5h25.1c0.2,0,0.4,0.2,0.4,0.5V183c0,0.5,0.4,0.7,1.3,0.7
		h9.9c0.2,0,0.4,0.2,0.4,0.5c0,0.4-0.1,0.5-0.4,0.5H287.3z"/>
	<g>
		<g>
			<path class="st0" d="M194.9,65.2c-0.1,0-0.2,0-0.2-0.1c0-1.6-0.2-3.2-0.6-4.6c-0.4-1.5-1.1-2.7-2-3.8c-0.9-1.1-2.1-1.9-3.6-2.5
				c-1.5-0.6-3.3-0.9-5.4-0.9h-1.3c-0.2,0-0.3,0.1-0.3,0.2v39.5c0,0.2,0.1,0.2,0.3,0.2h5.1c0.1,0,0.1,0.1,0.1,0.2s0,0.2-0.1,0.2
				h-17.1c-0.1,0-0.1-0.1-0.1-0.2s0-0.2,0.1-0.2h5c0.2,0,0.3-0.1,0.3-0.2V53.5c0-0.2-0.1-0.2-0.3-0.2h-1.3c-2.1,0-3.9,0.3-5.3,0.9
				c-1.5,0.6-2.6,1.5-3.5,2.5c-0.9,1.1-1.5,2.3-1.9,3.8c-0.4,1.5-0.6,3-0.6,4.6c0,0.1-0.1,0.1-0.2,0.1c-0.1,0-0.2,0-0.2-0.1v-12
				c0-0.1,0.1-0.2,0.2-0.2h33c0.1,0,0.1,0.1,0.1,0.2v12C195.1,65.2,195,65.2,194.9,65.2z"/>
			<path class="st0" d="M222.6,93.5c-0.1,0-0.1-0.1-0.1-0.2s0-0.2,0.1-0.2h4.5c0.2,0,0.3-0.1,0.3-0.2V72.5h-17.2v20.4
				c0,0.2,0.1,0.2,0.4,0.2h4.5c0.1,0,0.1,0.1,0.1,0.2s0,0.2-0.1,0.2h-16.6c-0.1,0-0.1-0.1-0.1-0.2s0-0.2,0.1-0.2h5
				c0.2,0,0.3-0.1,0.3-0.2V53.5c0-0.2-0.1-0.2-0.3-0.2h-5c-0.1,0-0.1-0.1-0.1-0.2c0-0.1,0-0.2,0.1-0.2h16.6c0.1,0,0.1,0.1,0.1,0.2
				c0,0.1,0,0.2-0.1,0.2h-4.5c-0.3,0-0.4,0.1-0.4,0.2v18.7h17.2V53.5c0-0.2-0.1-0.2-0.3-0.2h-4.5c-0.1,0-0.1-0.1-0.1-0.2
				c0-0.1,0-0.2,0.1-0.2h16.6c0.1,0,0.1,0.1,0.1,0.2c0,0.1,0,0.2-0.1,0.2h-5.1c-0.2,0-0.3,0.1-0.3,0.2v39.5c0,0.2,0.1,0.2,0.3,0.2
				h5.1c0.1,0,0.1,0.1,0.1,0.2s0,0.2-0.1,0.2H222.6z"/>
			<path class="st0" d="M276.2,93.5h-32.4c-0.1,0-0.1-0.1-0.1-0.2s0-0.2,0.1-0.2h5c0.2,0,0.3-0.1,0.3-0.2V53.5
				c0-0.2-0.1-0.2-0.3-0.2h-5c-0.1,0-0.1-0.1-0.1-0.2c0-0.1,0-0.2,0.1-0.2h29.4c0.1,0,0.2,0.1,0.2,0.2v10.3c0,0.1-0.1,0.1-0.2,0.1
				s-0.2,0-0.2-0.1c0-1.3-0.2-2.6-0.5-3.8c-0.4-1.2-0.9-2.3-1.7-3.2c-0.8-0.9-1.8-1.7-3.1-2.2c-1.3-0.6-2.8-0.8-4.6-0.8h-7.2
				c-0.2,0-0.3,0.1-0.3,0.2v19h2.9c2.3,0,4.1-0.6,5.4-1.8c1.2-1.2,1.9-2.8,1.9-4.8c0-0.1,0.1-0.1,0.2-0.1c0.1,0,0.2,0,0.2,0.1v13.4
				c0,0.1-0.1,0.1-0.2,0.1c-0.1,0-0.2,0-0.2-0.1c0-1.9-0.6-3.5-1.9-4.7c-1.2-1.2-3-1.8-5.4-1.8h-2.9v20.1c0,0.2,0.1,0.2,0.3,0.2h7.4
				c2.4,0,4.4-0.3,6-0.9c1.6-0.6,2.9-1.5,4-2.5c1-1,1.7-2.2,2.2-3.6c0.4-1.4,0.7-2.8,0.7-4.3c0-0.1,0.1-0.1,0.2-0.1
				c0.1,0,0.2,0,0.2,0.1v11.5C276.4,93.4,276.3,93.5,276.2,93.5z"/>
		</g>
	</g>
	<g>
		<g>
			<path class="st0" d="M236.1,213.8c-0.1,0-0.2,0-0.2-0.1c0-1.4-0.2-2.8-0.6-4.1c-0.4-1.3-1-2.4-1.8-3.3c-0.8-0.9-1.9-1.7-3.2-2.2
				c-1.3-0.5-2.9-0.8-4.7-0.8h-1.2c-0.2,0-0.3,0.1-0.3,0.2v34.6c0,0.1,0.1,0.2,0.3,0.2h4.5c0.1,0,0.1,0.1,0.1,0.2
				c0,0.1,0,0.2-0.1,0.2h-15c-0.1,0-0.1,0-0.1-0.2c0-0.1,0-0.2,0.1-0.2h4.4c0.2,0,0.3-0.1,0.3-0.2v-34.6c0-0.1-0.1-0.2-0.3-0.2h-1.1
				c-1.8,0-3.4,0.3-4.7,0.8c-1.3,0.5-2.3,1.3-3.1,2.2c-0.8,0.9-1.4,2-1.7,3.3c-0.4,1.3-0.5,2.6-0.5,4.1c0,0.1-0.1,0.1-0.2,0.1
				c-0.1,0-0.2,0-0.2-0.1v-10.5c0-0.1,0.1-0.2,0.2-0.2h28.9c0.1,0,0.1,0,0.1,0.2v10.5C236.3,213.7,236.2,213.8,236.1,213.8z"/>
			<path class="st0" d="M271.5,228c-0.9,2.3-2.1,4.2-3.5,5.9c-1.5,1.7-3.2,3-5.2,4c-2,1-4.1,1.5-6.4,1.5c-2.3,0-4.4-0.5-6.4-1.5
				c-2-1-3.7-2.3-5.2-4c-1.5-1.7-2.7-3.7-3.5-5.9c-0.9-2.3-1.3-4.7-1.3-7.3c0-2.5,0.4-4.9,1.2-7.2c0.8-2.3,2-4.2,3.4-5.9
				c1.5-1.7,3.2-3.1,5.2-4.1c2-1,4.2-1.5,6.6-1.5c2.3,0,4.4,0.5,6.4,1.5c2,1,3.8,2.3,5.2,4c1.5,1.7,2.7,3.7,3.5,5.9
				c0.9,2.3,1.3,4.7,1.3,7.3C272.8,223.4,272.4,225.8,271.5,228z M265.9,210.2c-0.7-2.6-1.8-4.6-3.2-5.8c-0.9-0.8-1.8-1.3-2.9-1.6
				c-1.1-0.3-2.2-0.4-3.5-0.4c-1.3,0-2.5,0.1-3.5,0.4c-1.1,0.3-2,0.8-2.9,1.6c-1.4,1.2-2.4,3.2-3.1,5.8c-0.7,2.6-1.1,6.2-1.1,10.6
				c0,2.5,0.1,4.7,0.3,6.5c0.2,1.8,0.5,3.3,0.8,4.6c0.4,1.3,0.8,2.3,1.3,3.2c0.5,0.9,1.1,1.6,1.8,2.2c0.9,0.7,1.8,1.2,2.9,1.5
				c1.1,0.3,2.2,0.4,3.5,0.4c1.3,0,2.5-0.1,3.5-0.4c1.1-0.3,2-0.8,2.9-1.5c0.7-0.6,1.3-1.3,1.8-2.2c0.5-0.9,1-1.9,1.3-3.2
				c0.4-1.3,0.6-2.8,0.8-4.6c0.2-1.8,0.3-4,0.3-6.5C267,216.3,266.7,212.8,265.9,210.2z"/>
			<path class="st0" d="M306.7,203.3c-0.2,0-0.3,0.1-0.3,0.2V228c0,1.7-0.2,3.3-0.7,4.7c-0.5,1.4-1.2,2.6-2.2,3.6
				c-1,1-2.3,1.7-3.8,2.3c-1.5,0.5-3.4,0.8-5.5,0.8c-1.9,0-3.7-0.2-5.3-0.7c-1.6-0.5-3-1.2-4.1-2.1c-1.2-0.9-2-2.1-2.7-3.5
				c-0.6-1.4-1-3-1-4.9v-24.7c0-0.1-0.1-0.2-0.3-0.2h-4.5c-0.1,0-0.1-0.1-0.1-0.2c0-0.1,0-0.2,0.1-0.2h15.1c0.1,0,0.1,0,0.1,0.2
				c0,0.1,0,0.2-0.1,0.2H287c-0.2,0-0.3,0.1-0.3,0.2v24.7c0,7,2.9,10.5,8.8,10.5c1.8,0,3.4-0.3,4.8-0.8c1.3-0.5,2.4-1.2,3.3-2.2
				c0.9-0.9,1.5-2.1,1.9-3.4c0.4-1.3,0.6-2.8,0.6-4.3v-24.5c0-0.1-0.1-0.2-0.3-0.2h-4.4c-0.1,0-0.1-0.1-0.1-0.2c0-0.1,0-0.2,0.1-0.2
				h9.8c0.1,0,0.1,0,0.1,0.2c0,0.1,0,0.2-0.1,0.2H306.7z"/>
			<path class="st0" d="M347.2,239c-0.8,0.3-1.7,0.5-2.8,0.5c-1,0-2-0.2-2.9-0.5c-0.9-0.3-1.7-0.9-2.3-1.7c-0.7-0.8-1.2-1.8-1.6-3
				s-0.6-2.8-0.6-4.6v-3.3c0-1.1-0.2-2-0.6-2.8c-0.4-0.8-1-1.4-1.7-1.9c-0.7-0.5-1.6-0.9-2.6-1.1c-1-0.2-2-0.4-3.2-0.4h-5.1v17.9
				c0,0.1,0.1,0.2,0.4,0.2h5.8c0.1,0,0.1,0.1,0.1,0.2c0,0.1,0,0.2-0.1,0.2h-16.4c-0.1,0-0.1,0-0.1-0.2c0-0.1,0-0.2,0.1-0.2h4.5
				c0.2,0,0.3-0.1,0.3-0.2v-34.6c0-0.1-0.1-0.2-0.3-0.2h-4.5c-0.1,0-0.1-0.1-0.1-0.2c0-0.1,0-0.2,0.1-0.2h15.4
				c1.9,0,3.6,0.2,5.1,0.7c1.5,0.5,2.8,1.1,3.8,1.9c1.1,0.8,1.9,1.7,2.4,2.8c0.6,1.1,0.8,2.2,0.8,3.4c0,1.2-0.3,2.3-0.9,3.3
				c-0.6,1-1.4,1.9-2.4,2.6c-1,0.8-2.2,1.3-3.5,1.8c-1.3,0.4-2.8,0.7-4.3,0.7c4.3,0,7.5,0.9,9.5,2.7c2,1.8,3.1,4.2,3.1,7.1v4.5
				c0,1.3,0.3,2.3,0.8,3.2c0.5,0.9,1.3,1.3,2.3,1.3c0.7,0,1.3-0.1,1.8-0.4c0.5-0.3,1-0.6,1.3-1c0.1,0,0.1,0,0.2,0.1
				c0.1,0.1,0.1,0.1,0,0.2C348.6,238.2,348,238.7,347.2,239z M335.1,207.9c-0.4-1.1-0.9-2-1.6-2.7c-0.7-0.7-1.5-1.2-2.5-1.5
				c-1-0.3-2-0.5-3.2-0.5h-3.6c-0.2,0-0.4,0.1-0.4,0.2v16.4h5.1c1.2,0,2.3-0.1,3.1-0.4c0.9-0.2,1.5-0.7,2.1-1.3
				c0.5-0.6,0.9-1.4,1.2-2.4c0.2-1,0.4-2.3,0.4-3.9C335.7,210.3,335.5,209,335.1,207.9z"/>
		</g>
	</g>
	<g>
		<g>
			<path class="st0" d="M388.8,68.4c-1.4,1.7-3.4,2.5-5.8,2.5c-2.7,0-4.6-0.6-5.8-1.8c-1.2-1.2-1.8-2.6-1.8-4.3c0-1,0.1-1.7,0.4-2.3
				c0.2-0.6,0.5-1.1,0.7-1.6c0.2-0.5,0.5-1.1,0.7-1.7c0.2-0.7,0.4-1.6,0.4-2.8c0-1.7-0.6-3.1-1.7-4.2c-1.1-1.1-2.7-1.7-4.6-1.7
				c-1.3,0-2.6,0.3-3.9,1c-1.3,0.7-2.4,1.8-3.4,3.4c-1,1.6-1.9,3.8-2.5,6.6c-0.7,2.8-1,6.2-1,10.3v34c0,0.5,0.4,0.7,1.1,0.7h15
				c0.2,0,0.4,0.2,0.4,0.5c0,0.4-0.1,0.5-0.4,0.5h-15c-0.7,0-1.1,0.2-1.1,0.5v73.5c0,0.5,0.4,0.7,1.1,0.7h9.9c0.2,0,0.4,0.2,0.4,0.5
				c0,0.4-0.1,0.5-0.4,0.5h-36.7c-0.2,0-0.4-0.2-0.4-0.5c0-0.4,0.1-0.5,0.4-0.5h9.8c0.8,0,1.3-0.2,1.3-0.7V108
				c0-0.4-0.4-0.5-1.3-0.5h-12.3c-0.2,0-0.4-0.2-0.4-0.5c0-0.4,0.1-0.5,0.4-0.5h12.3c0.8,0,1.3-0.2,1.3-0.7V102c0-9.9,0.7-18.2,2-25
				c1.3-6.8,3.3-12.3,5.9-16.4c2.6-4.2,5.7-7.1,9.3-8.9c3.6-1.8,7.7-2.7,12.1-2.7c2,0,4,0.4,6,1.1c1.9,0.7,3.6,1.7,5.1,2.9
				c1.4,1.2,2.6,2.7,3.5,4.3c0.9,1.7,1.4,3.5,1.4,5.4C391,64.8,390.3,66.7,388.8,68.4z"/>
		</g>
	</g>
	<g>
		<g>
			<g>
				<path class="st0" d="M245.1,99.5c-23.3,0-42.8,15.9-48.4,37.4c0.9-0.3,1.8-0.6,2.7-0.8c2.2-7.5,6.3-14.4,12-20.1
					c0.2-0.2,0.4-0.4,0.6-0.6c-0.2,0.5-0.4,1-0.7,1.5c-0.7,1.1-1.9,1.5-2.6,2.5c-0.7,0.9-1.2,2.3-1.5,3.3c-0.3,1.1-0.1,2.4-0.5,3.5
					c-0.5,1.4-1.4,2.2-1.2,3.8c1.9,0.6,1.1-2.9,2.7-3c0.5,1.3,0.2,3.7,0,5.1c-0.1,0.6-0.1,1-0.2,1.4c1.4-0.4,2.7-0.8,4-1.2
					c0.3-1.2,0.9-2.5,1.3-3c0.6-0.9,2.7-2.4,4.1-3c-0.2-2.9,0.5-5.2,2-6.9c0.4-0.5,1-1,1.6-1.3c0.7-1,3.1-3.6,6.7-3.6
					c1,0,2.1,0.2,3.1,0.6l0.3,0.1l0,0c0,0,0.3,0,0.3,0c0.7,0,1.5,0.1,2.4,0.4c0.1,0,0.1-0.1,0.2-0.1c1.9-0.8,0.5-1-0.3-2
					c-1.1-1.3,0.5-1,1.6-1.2c0.8-0.1,0.7-0.4,1.4,0.1c0.6,0.4,0.3,1,1.2,1c1.8-0.1,0.5-1.8,0.2-2.4c-0.7-1-0.9-1.7-2.3-1.8
					c0.1-0.5,0.2-1.1,0-1.5c-1.2,0.2-1.4-0.7-2.3-1.1c-1.5-0.6-1.3,0.7-1.9,1.5c-0.6,0.9-1.9,0.7-2.4,1.8c-0.5,1.1,0,2-1.8,1.7
					c0.2-0.7,0.2-1.5,0.1-2.3c-0.5-0.1-1-0.2-1.5-0.4c0-1.8,2-2,3.4-2.1c1.5-0.2,2-1.7,3.4-2c1.3-0.2,2.2,1.8,3.8,0.6
					c0.9-0.7,0.5-1.1,0.2-1.7c-0.1-0.2-0.5-0.6-0.7-0.7c0,0,0,0,0-0.1c1.2-0.2,2.4-0.4,3.7-0.6c0.2,0.7,0.7,1.5,1,2
					c0.2,0.3,0.6,0.6,0.7,1c0.2,0.4-0.2,1,0.3,1.3c0.8,0.4,3.3-2.5,3.9-2.9c0.7-0.6,1.2-0.9,1-1.5c3.9,0.1,7.8,0.7,11.5,1.7
					c0.3,0.4,0.6,0.7,0.9,1.2c0.7,0.9,1.1,1.7,2.2,2.1c0.7,0.2,2.8,0.2,1.9,1.7c-0.8,1.4-1.8-0.4-2.2-0.9c-0.6-0.6-2.3-1.3-2.2,0.1
					c0.1,2.1,4.9,1.8,3.9,4.1c0.6,0.3,1.7,0.9,1.5,1.7c-0.1,0.4-0.4,0.6-0.7,0.7c0.7,0.1,1.2,0.4,1.5,0.8l2.8-0.8l0.2,1.7
					c0.2-0.8,0.4-1.6,1.5-1.8c0.9-0.1,1.5,0.2,2.3,0.8c0.7,0.5,1.1,1.7,2,1.6c0.1-0.6-0.3-1-0.4-1.5c0.7,0.2,2.1,1.1,2.6,1.7
					c0.6,0.9,0.6,2.3,2.1,1.1c-0.2-0.2-0.3-0.6-0.5-0.7c1.9,0,3.3,0.8,4.1,2.5c1.9,3.7-2.7,0.8-2.9,2.7c-1.1-0.4-1.6-1.3-2.6-1.8
					c-0.5-0.3-1.3-0.1-1.7-0.4c-0.5-0.4-0.4-1-0.8-1.4c-1.2-1-3.5-0.1-5.3,0.8l0,0.3l-0.2,0.1c0.1,0.2,0.1,0.3,0.2,0.5
					c2.1,1.2,2.1,2.2,2.1,2.6c0,0.6-0.3,1.3-0.5,1.9c1.3,3,4.6,11.3,5,13.2c0.1,0.7,0.2,1.8,0.4,3c0.1,0.7,0.1,1.3,0.2,2
					c0,0.2,0,0.4,0.1,0.6c0,0,0,0,0,0c1.2-0.6,1.3-1.3,2.5-0.8c1,0.4,1.8,1.7,3,0.6c0.9,0.9-0.1,2.5-0.3,3.5
					c-0.3,1.3,0.2,2.4,1.1,3.6c1,1.3,1.2,1.6,1,3.4c-0.2,1.4-0.5,2.7-0.8,4c-0.3,1.3-1.1,2.3-1.1,3.7c0,1.3,0.6,2.3,0.4,3.7
					c-0.1,1.2-0.2,2.7-0.5,3.9c-0.3,1.2-1.2,2.3-1.6,3.5c-0.3,1.2-0.2,2.7,0.6,3.7c0.9,1,1.7,0.4,2.7-0.3c2-1.5,2.9-4.1,4.2-6.1
					c1.4-2.1,2.7-4,3.6-6.2c0.2-0.5,0.4-0.9,0.7-1.4c-2.2,7.7-6.3,14.7-12.1,20.5c-9,9-21,14-33.7,14c-12.7,0-24.7-5-33.7-14
					c-9-9-14-21-14-33.7c0-3,0.3-5.9,0.8-8.8c-0.9,0.3-1.8,0.6-2.6,0.8c-0.4,2.6-0.6,5.3-0.6,8c0,27.7,22.4,50.1,50.1,50.1
					c27.7,0,50.1-22.4,50.1-50.1C295.2,121.9,272.8,99.5,245.1,99.5z"/>
				<path class="st0" d="M223.4,160.2c0.1,1,0.1,1.8,0.5,2.8c0.5,1.1,1.4,1.7,2.3,2.3c-0.4-0.7-0.8-1.6-1.3-2.4
					C224.3,161.9,223.8,161,223.4,160.2z"/>
				<path class="st0" d="M221.8,155.4c0-1.6,0-2.8-0.4-4c-0.1-0.5-0.3-1.3-0.5-2.3c-0.4,0.7-0.8,1.4-0.9,1.8c-0.8,2-0.9,4.9,1,6.4
					c0.5,0.4,1,0.7,1.4,1c-0.4-1-0.6-1.7-0.6-2.2L221.8,155.4z"/>
				<path class="st0" d="M211.9,138.3c1.6,0.2,2.3,0.9,3,2.5c1.2,0.3,2,0.5,2.2,1.9c0.5,0.3,1.6,1.3,2.1,1.4
					c0.4,0.1,0.9-0.1,1.4-0.2c0-0.5,0.1-0.9,0.2-1.3c0,0,0,0,0,0c-2.1,0.4-2.4-0.4-2.3-2.3l-0.3-0.6c0.8-2.1-0.6-2.3-2.1-2.8
					c-0.1-0.6,0.1-1.1,0.4-1.6c-1.9,0.6-4.1,1.3-6.5,2C210.3,137.8,210.8,138.2,211.9,138.3z"/>
				<path class="st0" d="M222.4,158.2c0.2,0.6,0.6,1.2,1,2c0-0.2,0-0.4-0.1-0.6C223.1,159,222.8,158.5,222.4,158.2z"/>
			</g>
		</g>
		<path class="st0" d="M274.4,147.3c-0.4-0.4-0.6-2-0.8-3.7c-0.2-1.8-0.4-3.8-0.5-4.9c-0.4-2-5.2-13.6-5.2-13.6s0.7-1.1,0.7-1.7
			c0-0.6-2-1.5-2-1.5c0.1-0.9-1.1-2.3-1.1-2.3l0.8-0.4l-0.2-2.4l-2.3,0.7c0,0,0-1.2-0.8-1.2c-0.8-0.1-1,0.8-1,0.8s-1.1-1-1.6-1
			c-0.5,0.1-0.5,0.9-0.5,0.9s-1-0.6-1.5-0.4c-0.5,0.3-0.6,1-0.6,1s-0.8-0.5-1.2-0.2c-0.4,0.2-0.9,1-0.9,1s-1.8-1.2-2.5-1.1
			c-0.7,0.1-1.1,0.8-1.1,0.8s-0.4-0.3-0.9-0.1c-0.5,0.3-0.8,0.8-0.8,0.8s-0.7,0-1.3,0.3c-0.6,0.3-0.5,0.8-0.7,1.2
			c-0.2,0.4-1.4,0.4-1.5,1.1c-0.1,0.3,0.2,0.8,0.5,1.2l-5.5,1.8l0,0.4l-4.3,1.2c-1.1-2.5-2.5-4.9-2.5-4.9s1.1-2.2-0.7-3.5
			c-1.1-0.8-2.2-0.9-2.9-0.9c-4.4,1.9-4.1,6.1-5.2,8.3c-1.2,2.3-4.1,1.5-4.1,1.5s2.1,0.3,3.3-1.9c1.1-2.1,0.8-6,4.7-8
			c-5-2-8,2.6-8,2.6c-0.6,0.3-1.1,0.7-1.5,1.2c-1.7,1.9-1.8,4.6-1.4,6.9c0.2,1.6,0.7,3.1,1.1,4c-0.3,0.1-0.9,0.3-1.7,0.5
			c-6.8,2.1-30,9.3-30.6,9.5c-0.7,0.2-1.1,0.8-1.6,1.8c-0.5,1-1.3,3.4-1.5,3.8c-0.3,0.3-0.2,1.5,0.3,1.8c0.5,0.3,2,1,2.4,0
			c0.4-0.9,1.3-4.8,1.3-5.2c0-0.5,0-1.4,0.6-1.7c0.6-0.2,22-6.9,29.1-9.1c1-0.3,1.7-0.5,2-0.6c0.1,0.3,0.2,0.5,0.2,0.5
			c0.3,2.7,4.1,4.5,4.1,4.5l0.8,0.7c1.9-1.1,3.8-2,4.2-2.2c-0.4,0.3-1.9,1.5-3.6,2.8c0,0-0.1,0.1-0.3,0.2c-0.1,0.1-0.2,0.2-0.3,0.3
			c-1.1,0.8-3.1,2.6-3.5,4.1c-0.6,2,0.2,6.3,0.7,8c0.5,1.7,0.4,3.2,0.4,5.1c0,1.6,4,7.8,5.2,10.6c1.8-3.7,6.7-13.6,10.2-16
			c-2.8,2.5-8.3,14.6-9.9,18.1c0.3,2.2,1.9,6.9,1.9,7.9c0,0.3,0,1.1,0.1,2.1c1.4-5.6,3.9-13.8,7-18.4c-3.1,5.9-6.1,20-6.9,23.8
			c0,0.7,0,1.1,0,1.1c-1.2,1.4-0.3,3.8-0.3,3.8c0,0.2-0.1,0.3-0.1,0.5l0.1,1.6c1.8,1.2,3.7,2.1,5.9,2.7c2.8,0.7,6,1.1,9.3,1.1
			c3.5,0,6.6-0.4,9.3-1.1c2.7-0.7,5.2-2,7.5-3.9c0,0,0,0,0,0c-0.3-0.4-0.5-0.7-0.5-0.7c0.1-1.3,0-2.4-0.3-3.1
			c-2,0.9-6.7,2.4-14.2,1.2c8.5-0.1,12.1-1.5,13.6-2.5c0-0.1-0.1-0.1-0.1-0.1c1.1-12.7-2-26.7-2.5-28.9c-1.1-3.7-1.9-6-2-6.4
			c0.2,0.4,1.4,2.4,2.8,5.9l1.4-0.3c3.7,0,10.8-3.3,12.7-4.4c0.1-0.1,0.2-0.1,0.3-0.2C275.1,149.6,275.2,148.1,274.4,147.3z
			 M238,126.6l4.1-1.1l0.1,0.4l4.8-1.3c-0.9,0.8-1.9,1.8-2.4,2.3c-0.8,0.9-5.4,4-5.4,4C239.2,129.8,238.7,128.2,238,126.6z
			 M264.7,143.3c-0.4-0.1-4.5-1.6-10.1-0.2c0,0-4.1-1.8-9.1-1.9c-1.5,1.3-4.4,3.5-6.2,3.5c1.6-0.4,3.6-2.2,4.9-3.5H244
			c0,0,3.3-4.2,5.3-5.8c1.9-1.6,4.5-3.4,5.3-5.6c0,0,3.1-2.6,2.8-5.5c0,0,1,0.8,2.4,0.7c0,0,0.7,0.5,1.4,1.2
			c1.1-3.3,4.3-2.8,4.3-2.8s-2.7-0.3-3.4,3.8c0.2,0.3,0.3,0.5,0.4,0.7c0.2,1.1,2.5,8.4,2.4,10.1c-0.1,1.1-0.1,2.9-0.1,4.1
			c1.4,1.7,3.1,3.2,3.3,3.3C267.8,145.4,266.2,144.5,264.7,143.3z"/>
	</g>
</g>
</svg>
