<?xml version="1.0" encoding="utf-8"?>
<!-- Generator: Adobe Illustrator 27.2.0, SVG Export Plug-In . SVG Version: 6.00 Build 0)  -->
<svg version="1.1" id="Layer_1" xmlns="http://www.w3.org/2000/svg" xmlns:xlink="http://www.w3.org/1999/xlink" x="0px" y="0px"
	 viewBox="0 0 495.6 290.8" style="enable-background:new 0 0 495.6 290.8;" xml:space="preserve">
<style type="text/css">
	.st0{fill:#FFFFFF;}
	.st1{fill-rule:evenodd;clip-rule:evenodd;fill:#FFFFFF;}
</style>
<g>
	<g>
		<path class="st0" d="M447.7,117.6H415l-3.4,12.1c0,0,19.4,0.1,27.4,0.1c7.9,0,4.7,7.6,4.7,7.6h-25.5c-11.7,0-14.5,13.2-14.5,19.4
			c0,13.3,9.6,12.1,9.6,12.1H442c11.1,0,12.9-9.9,12.9-9.9s3.5-12.7,6.7-26.1C464.9,118.5,447.7,117.6,447.7,117.6z M432.6,157.3
			h-8.3c-3.5,0-4.9-2.9-4.9-4.4c0-4.6,4.9-4.5,4.9-4.5h16.5C438.7,158.2,432.6,157.3,432.6,157.3z"/>
	</g>
	<path class="st1" d="M398.5,124.4c-2.7-4.2-9-8.2-23.5-8.2c-20.7,0-26.6,6.8-28.8,12.8c-2.2,6-5.5,17.1-5.5,24.1
		c0,16.3,18.5,15.7,18.5,15.7h10.8c20.6,0,24.8-12.9,25.7-15.7c0.8-2.8,2.5-7.9,3.7-13.4C400.6,134,401.2,128.6,398.5,124.4z
		 M382,140.7c-1.9,8.5-4.2,15-14.7,15c-10.5,0-10.2-8-7.2-15.9c3-7.9,7.3-10.8,13.1-10.8C380.5,128.9,383.8,132.2,382,140.7z"/>
	<polygon class="st0" points="320.4,123.5 305.5,123.5 310.6,99.2 292,99.2 277.4,168.6 296,168.6 302,140.2 316.8,140.2 
		310.9,168.6 329.6,168.6 344.2,99.2 325.5,99.2 	"/>
	<path class="st0" d="M91.8,104.9c-1.6-2.3-5.3-3.5-11.2-3.5H69.4l-2.8,12.5h4.5c2.9,0,3.2,0.8,2.5,4l-10.7,50.9h18.5l10.8-51.4
		C93.5,111.4,93.4,107.2,91.8,104.9z"/>
	<polygon class="st0" points="45.5,120.1 34.9,168.8 51.8,168.8 67.6,98.9 52.8,98.9 33.6,120.1 	"/>
	<path class="st1" d="M212.5,168.1l11.8-44.7c0,0,2.4-7.8,12.1-7.8h28.9c0,0,13.3-0.9,13.3,13.3c0,3-5.5,23.2-10.1,39.2h-17.2
		l6.8-27.1c0,0,0.9-3.9,0.9-6.3c0-2.4-0.5-6.3-6.2-6.3h-6.2c0,0-5.9-0.6-7.6,5.9c-1.7,6.5-8.7,33.8-8.7,33.8L212.5,168.1z"/>
	<path class="st1" d="M144.7,115.4c-5,0-16-0.1-24.5-0.1c-8.5,0-12.4,2.4-16.1,6.2c-7.5,7.5-10.4,24.2-10.4,30.2
		c0,16.3,15,16.4,15,16.4h18.1c-1.4,8.7-9.2,8.3-9.2,8.3h-27c-0.8,3.3-3.3,12.4-3.3,12.4h33.4c16.4,0,22.4-14.6,23.3-18.7
		c0.9-4.1,4.2-15.7,5.1-20c0.9-4.3,6.6-23,6.6-26C155.6,118.2,149.7,115.4,144.7,115.4z M135.7,135.5l-5.8,20.8h-12.6
		c-7,0-7.2-7.6-4.8-17c2.4-9.5,7.4-10.6,16.2-10.6C137.4,128.6,135.7,135.5,135.7,135.5z"/>
	<path class="st0" d="M199.8,117.6h-32.7l-3.4,12.1c0,0,19.4,0.1,27.4,0.1c3.5,0,4.8,1.5,5.2,3.1c0.5,2.1-0.5,4.4-0.5,4.4h-25.5
		c-11.7,0-14.5,13.2-14.5,19.4c0,13.3,9.6,12.1,9.6,12.1h28.7c11.1,0,12.9-9.9,12.9-9.9s3.5-12.5,6.6-25.9c0-0.1,0-0.2,0.1-0.3
		C217,118.5,199.8,117.6,199.8,117.6z M184.7,157.3h-8.3c-3.5,0-4.9-2.9-4.9-4.4c0-4.6,4.9-4.5,4.9-4.5h16.5
		C190.8,158.2,184.7,157.3,184.7,157.3z"/>
	<g>
		<path class="st0" d="M164.5,174.9l-2.6,13.2h-1.6l-5.9-10.2l-2,10.2h-1.9l2.6-13.2h1.6l5.9,10.2l2-10.2H164.5z"/>
		<path class="st0" d="M177.7,178.6c-0.4,0.4-0.9,0.7-1.5,0.8c0.8,0.7,1.1,1.7,1.1,3c0,1.1-0.3,2.1-0.8,3s-1.2,1.6-2.1,2.1
			c-0.9,0.5-1.9,0.8-3,0.8c-0.9,0-1.8-0.2-2.5-0.5c-0.7-0.4-1.3-0.9-1.6-1.5c-0.4-0.7-0.6-1.4-0.6-2.3c0-1.1,0.3-2.1,0.8-3
			c0.5-0.9,1.2-1.6,2.1-2.1c0.9-0.5,1.9-0.8,3-0.8c0.3,0,0.9,0,1.8,0.1c0.4,0,0.8,0.1,1.1,0.1c0.4,0,0.8-0.1,1-0.3
			c0.3-0.2,0.4-0.5,0.4-0.9c0-0.4-0.1-0.8-0.4-1.2l1.1-0.4c0.4,0.5,0.5,1,0.5,1.7C178.2,177.6,178,178.2,177.7,178.6z M173.5,186.1
			c0.6-0.4,1.1-0.9,1.4-1.5c0.3-0.6,0.5-1.4,0.5-2.2c0-0.9-0.3-1.6-0.8-2.1c-0.5-0.5-1.3-0.7-2.2-0.7c-0.7,0-1.4,0.2-2,0.5
			c-0.6,0.4-1.1,0.9-1.4,1.5c-0.3,0.6-0.5,1.4-0.5,2.2c0,0.9,0.3,1.6,0.8,2.1c0.5,0.5,1.3,0.7,2.2,0.7
			C172.2,186.7,172.9,186.5,173.5,186.1z"/>
		<path class="st0" d="M181.8,178.1h1.8l-2,10h-1.8L181.8,178.1z M182.5,175.9c-0.2-0.2-0.3-0.5-0.3-0.8c0-0.4,0.1-0.7,0.4-0.9
			c0.2-0.2,0.6-0.4,0.9-0.4c0.3,0,0.6,0.1,0.8,0.3c0.2,0.2,0.3,0.5,0.3,0.7c0,0.4-0.1,0.7-0.4,0.9c-0.2,0.2-0.6,0.4-1,0.4
			C182.9,176.2,182.7,176.1,182.5,175.9z"/>
		<path class="st0" d="M195.2,185c0,0.2-0.1,0.4-0.1,0.5c0,0.4,0.1,0.7,0.3,0.9c0.2,0.2,0.6,0.3,1,0.3c0.5,0,1-0.2,1.4-0.5l0.4,1.4
			c-0.6,0.4-1.4,0.6-2.3,0.6c-0.8,0-1.4-0.2-1.9-0.7s-0.7-1.1-0.7-1.8c0-0.3,0-0.5,0.1-0.8l1.1-5.4h-1.7l0.3-1.5h1.7l0.4-2.2h1.8
			l-0.4,2.2h2.9l-0.3,1.5h-2.9L195.2,185z"/>
		<path class="st0" d="M203.4,178.1h1.8l-2,10h-1.8L203.4,178.1z M204.1,175.9c-0.2-0.2-0.3-0.5-0.3-0.8c0-0.4,0.1-0.7,0.4-0.9
			c0.2-0.2,0.6-0.4,0.9-0.4c0.3,0,0.6,0.1,0.8,0.3c0.2,0.2,0.3,0.5,0.3,0.7c0,0.4-0.1,0.7-0.4,0.9c-0.2,0.2-0.6,0.4-1,0.4
			C204.5,176.2,204.3,176.1,204.1,175.9z"/>
		<path class="st0" d="M217.6,178.9c0.6,0.6,1,1.4,1,2.5c0,0.4,0,0.8-0.1,1.2l-1.1,5.6h-1.8l1.1-5.6c0.1-0.3,0.1-0.6,0.1-0.8
			c0-0.7-0.2-1.2-0.6-1.5c-0.4-0.4-1-0.5-1.7-0.5c-1,0-1.8,0.3-2.4,0.8c-0.6,0.5-1.1,1.3-1.3,2.4l-1.1,5.3h-1.8l2-10h1.7l-0.2,1.3
			c0.9-0.9,2.1-1.4,3.6-1.4C216.1,178,217,178.3,217.6,178.9z"/>
		<path class="st0" d="M231.7,178.9c0.6,0.6,1,1.4,1,2.5c0,0.4,0,0.8-0.1,1.2l-1.1,5.6h-1.8l1.1-5.6c0.1-0.3,0.1-0.6,0.1-0.8
			c0-0.7-0.2-1.2-0.6-1.5c-0.4-0.4-1-0.5-1.7-0.5c-1,0-1.8,0.3-2.4,0.8c-0.6,0.5-1.1,1.3-1.3,2.4l-1.1,5.3h-1.8l2.8-14h1.8l-1,5.2
			c0.9-0.8,2.1-1.3,3.5-1.3C230.1,178,231,178.3,231.7,178.9z"/>
		<path class="st0" d="M251.9,178.9c0.6,0.6,1,1.4,1,2.5c0,0.4,0,0.8-0.1,1.2l-1.1,5.6h-1.8l1.1-5.6c0.1-0.3,0.1-0.6,0.1-0.8
			c0-0.7-0.2-1.2-0.6-1.5c-0.4-0.4-1-0.5-1.7-0.5c-1,0-1.8,0.3-2.4,0.8c-0.6,0.5-1.1,1.3-1.3,2.4l-1.1,5.3h-1.8l2.8-14h1.8l-1,5.2
			c0.9-0.8,2.1-1.3,3.5-1.3C250.4,178,251.3,178.3,251.9,178.9z"/>
		<path class="st0" d="M258.4,187.7c-0.7-0.4-1.3-0.9-1.6-1.5c-0.4-0.7-0.6-1.4-0.6-2.3c0-1.1,0.3-2.1,0.8-3
			c0.5-0.9,1.2-1.6,2.1-2.1s1.9-0.8,3-0.8c0.9,0,1.8,0.2,2.5,0.5c0.7,0.4,1.3,0.9,1.6,1.5s0.6,1.4,0.6,2.3c0,1.1-0.3,2.1-0.8,3
			c-0.5,0.9-1.2,1.6-2.1,2.1c-0.9,0.5-1.9,0.8-3,0.8C259.9,188.3,259.1,188.1,258.4,187.7z M263,186.1c0.6-0.4,1.1-0.9,1.4-1.5
			c0.3-0.6,0.5-1.4,0.5-2.2c0-0.9-0.3-1.6-0.8-2.1c-0.5-0.5-1.3-0.7-2.2-0.7c-0.7,0-1.4,0.2-2,0.5c-0.6,0.4-1.1,0.9-1.4,1.5
			c-0.3,0.6-0.5,1.4-0.5,2.2c0,0.9,0.3,1.6,0.8,2.1c0.5,0.5,1.3,0.7,2.2,0.7C261.7,186.7,262.4,186.5,263,186.1z"/>
		<path class="st0" d="M280.8,178.1l-2,10H277l0.2-1.2c-0.5,0.4-1,0.8-1.6,1c-0.6,0.2-1.3,0.4-2,0.4c-0.9,0-1.6-0.2-2.3-0.5
			c-0.7-0.3-1.2-0.8-1.6-1.5c-0.4-0.7-0.6-1.4-0.6-2.3c0-1.1,0.2-2.1,0.7-3c0.5-0.9,1.2-1.6,2-2.1c0.9-0.5,1.8-0.8,2.9-0.8
			c0.9,0,1.6,0.2,2.2,0.5c0.6,0.3,1.1,0.7,1.4,1.3l0.3-1.7H280.8z M276.2,186.1c0.6-0.4,1.1-0.9,1.4-1.5c0.3-0.6,0.5-1.4,0.5-2.2
			c0-0.9-0.3-1.6-0.8-2.1c-0.5-0.5-1.3-0.7-2.2-0.7c-0.7,0-1.4,0.2-2,0.5c-0.6,0.4-1.1,0.9-1.4,1.5c-0.3,0.6-0.5,1.4-0.5,2.2
			c0,0.9,0.3,1.6,0.8,2.1c0.5,0.5,1.3,0.7,2.2,0.7C274.9,186.7,275.6,186.5,276.2,186.1z"/>
		<path class="st0" d="M295.9,182.3l3.6,5.8h-2.1l-2.9-4.7l-2.5,1.9l-0.6,2.8h-1.8l2.8-14h1.8l-1.8,8.9l6.2-4.9h2.6L295.9,182.3z"/>
		<path class="st0" d="M304,178.1h1.8l-2,10h-1.8L304,178.1z M304.7,175.9c-0.2-0.2-0.3-0.5-0.3-0.8c0-0.4,0.1-0.7,0.4-0.9
			c0.2-0.2,0.6-0.4,0.9-0.4c0.3,0,0.6,0.1,0.8,0.3c0.2,0.2,0.3,0.5,0.3,0.7c0,0.4-0.1,0.7-0.4,0.9c-0.2,0.2-0.6,0.4-1,0.4
			C305.2,176.2,304.9,176.1,304.7,175.9z"/>
		<path class="st0" d="M310.2,183.7v0.1c0,0.9,0.3,1.6,0.8,2.1c0.5,0.5,1.3,0.7,2.4,0.7c0.6,0,1.2-0.1,1.7-0.3
			c0.5-0.2,1-0.5,1.4-0.8l0.8,1.3c-0.5,0.5-1.1,0.8-1.8,1.1c-0.7,0.3-1.5,0.4-2.2,0.4c-1,0-1.8-0.2-2.6-0.5s-1.3-0.9-1.7-1.5
			c-0.4-0.7-0.6-1.4-0.6-2.3c0-1.1,0.2-2.1,0.7-3c0.5-0.9,1.2-1.6,2-2.1c0.9-0.5,1.8-0.8,2.9-0.8c1.4,0,2.4,0.4,3.3,1.2
			s1.2,1.8,1.2,3.2c0,0.4,0,0.9-0.1,1.3H310.2z M311.7,180.3c-0.6,0.5-1.1,1.2-1.3,2.1h6.5c0.1-0.9-0.2-1.6-0.7-2.1
			c-0.5-0.5-1.2-0.7-2.1-0.7C313.1,179.5,312.4,179.8,311.7,180.3z M316.5,176.7l-1.6-1.1l-1.9,1.1h-1.7l2.8-1.9h1.7l2.3,1.9H316.5z
			 M319,172.9h2.1l-3,2.1h-1.6L319,172.9z"/>
		<path class="st0" d="M331,178.9c0.6,0.6,1,1.4,1,2.5c0,0.4,0,0.8-0.1,1.2l-1.1,5.6h-1.8l1.1-5.6c0.1-0.3,0.1-0.6,0.1-0.8
			c0-0.7-0.2-1.2-0.6-1.5s-1-0.5-1.7-0.5c-1,0-1.8,0.3-2.4,0.8s-1.1,1.3-1.3,2.4l-1.1,5.3h-1.8l2-10h1.7l-0.2,1.3
			c0.9-0.9,2.1-1.4,3.6-1.4C329.4,178,330.3,178.3,331,178.9z"/>
		<path class="st0" d="M344.1,185c0,0.2-0.1,0.4-0.1,0.5c0,0.4,0.1,0.7,0.3,0.9c0.2,0.2,0.6,0.3,1,0.3c0.5,0,1-0.2,1.4-0.5l0.4,1.4
			c-0.6,0.4-1.4,0.6-2.3,0.6c-0.8,0-1.4-0.2-1.9-0.7c-0.5-0.4-0.7-1.1-0.7-1.8c0-0.3,0-0.5,0.1-0.8l1.1-5.4h-1.7l0.3-1.5h1.7
			l0.4-2.2h1.8l-0.4,2.2h2.9l-0.3,1.5h-2.9L344.1,185z"/>
		<path class="st0" d="M355.4,178.4c0.6-0.3,1.4-0.4,2.3-0.4l-0.3,1.8c-0.1,0-0.3,0-0.5,0c-2.1,0-3.3,1.1-3.8,3.4l-1,5h-1.8l2-10
			h1.7l-0.3,1.5C354.3,179.1,354.8,178.7,355.4,178.4z"/>
		<path class="st0" d="M370.6,178.1l-2,10h-1.7l0.2-1.3c-0.5,0.5-1,0.8-1.6,1c-0.6,0.2-1.3,0.4-2,0.4c-1.1,0-2-0.3-2.6-0.9
			c-0.6-0.6-1-1.4-1-2.5c0-0.4,0-0.7,0.1-1.2l1.1-5.6h1.8l-1.1,5.6c-0.1,0.3-0.1,0.6-0.1,0.9c0,0.7,0.2,1.2,0.6,1.5
			c0.4,0.3,1,0.5,1.7,0.5c1,0,1.8-0.3,2.4-0.8c0.6-0.5,1.1-1.3,1.3-2.4l1.1-5.3H370.6z M367.6,174.2h2.4l-3.4,2.5h-1.8L367.6,174.2z
			"/>
		<path class="st0" d="M375.4,187.7c-0.7-0.4-1.3-0.9-1.7-1.5c-0.4-0.6-0.6-1.4-0.6-2.3c0-1.1,0.3-2.1,0.8-3
			c0.5-0.9,1.2-1.6,2.1-2.1s1.9-0.8,3-0.8c2,0,3.4,0.7,4.1,2.2l-1.5,0.9c-0.5-1-1.4-1.4-2.7-1.4c-0.7,0-1.4,0.2-2,0.5
			c-0.6,0.4-1.1,0.9-1.4,1.5c-0.3,0.6-0.5,1.4-0.5,2.2c0,0.9,0.3,1.6,0.8,2.1c0.5,0.5,1.3,0.7,2.2,0.7c0.6,0,1.2-0.1,1.7-0.4
			c0.5-0.2,1-0.6,1.3-1.1l1.3,0.9c-0.5,0.6-1.1,1.1-1.9,1.5c-0.8,0.4-1.6,0.5-2.5,0.5C377,188.3,376.2,188.1,375.4,187.7z"/>
		<path class="st0" d="M401.1,178.9c0.6,0.6,1,1.4,1,2.5c0,0.4,0,0.8-0.1,1.2l-1.1,5.6h-1.8l1.1-5.6c0.1-0.3,0.1-0.6,0.1-0.8
			c0-0.7-0.2-1.2-0.6-1.5c-0.4-0.4-1-0.5-1.7-0.5c-1,0-1.8,0.3-2.4,0.8s-1.1,1.3-1.3,2.4l-1.1,5.3h-1.8l2.8-14h1.8l-1,5.2
			c0.9-0.8,2.1-1.3,3.5-1.3C399.6,178,400.5,178.3,401.1,178.9z"/>
		<path class="st0" d="M407.6,187.7c-0.7-0.4-1.3-0.9-1.6-1.5c-0.4-0.7-0.6-1.4-0.6-2.3c0-1.1,0.3-2.1,0.8-3
			c0.5-0.9,1.2-1.6,2.1-2.1s1.9-0.8,3-0.8c0.9,0,1.8,0.2,2.5,0.5c0.7,0.4,1.3,0.9,1.6,1.5s0.6,1.4,0.6,2.3c0,1.1-0.3,2.1-0.8,3
			c-0.5,0.9-1.2,1.6-2.1,2.1c-0.9,0.5-1.9,0.8-3,0.8C409.2,188.3,408.4,188.1,407.6,187.7z M412.3,186.1c0.6-0.4,1.1-0.9,1.4-1.5
			c0.3-0.6,0.5-1.4,0.5-2.2c0-0.9-0.3-1.6-0.8-2.1c-0.5-0.5-1.3-0.7-2.2-0.7c-0.7,0-1.4,0.2-2,0.5c-0.6,0.4-1.1,0.9-1.4,1.5
			c-0.3,0.6-0.5,1.4-0.5,2.2c0,0.9,0.3,1.6,0.8,2.1c0.5,0.5,1.3,0.7,2.2,0.7C411,186.7,411.7,186.5,412.3,186.1z M408.4,191.6
			c-0.2-0.2-0.2-0.4-0.2-0.6c0-0.3,0.1-0.5,0.3-0.7c0.2-0.2,0.5-0.3,0.8-0.3c0.3,0,0.5,0.1,0.6,0.2c0.2,0.2,0.2,0.4,0.2,0.6
			c0,0.3-0.1,0.6-0.3,0.8c-0.2,0.2-0.5,0.3-0.8,0.3C408.7,191.9,408.5,191.8,408.4,191.6z M413.7,176.7l-1.6-1.4l-1.9,1.4h-1.7
			l2.8-2.5h1.7l2.2,2.5H413.7z"/>
		<path class="st0" d="M420.6,178.1h1.8l-2,10h-1.8L420.6,178.1z M421.2,175.9c-0.2-0.2-0.3-0.5-0.3-0.8c0-0.4,0.1-0.7,0.4-0.9
			c0.2-0.2,0.6-0.4,0.9-0.4c0.3,0,0.6,0.1,0.8,0.3c0.2,0.2,0.3,0.5,0.3,0.7c0,0.4-0.1,0.7-0.4,0.9c-0.2,0.2-0.6,0.4-1,0.4
			C421.7,176.2,421.4,176.1,421.2,175.9z"/>
		<path class="st0" d="M433.9,185c0,0.2-0.1,0.4-0.1,0.5c0,0.4,0.1,0.7,0.3,0.9c0.2,0.2,0.6,0.3,1,0.3c0.5,0,1-0.2,1.4-0.5l0.4,1.4
			c-0.6,0.4-1.4,0.6-2.3,0.6c-0.8,0-1.4-0.2-1.9-0.7c-0.5-0.4-0.7-1.1-0.7-1.8c0-0.3,0-0.5,0.1-0.8l1.1-5.4h-1.7l0.3-1.5h1.7
			l0.4-2.2h1.8l-0.4,2.2h2.9l-0.3,1.5H435L433.9,185z"/>
		<path class="st0" d="M451.5,178.1l-2,10h-1.7l0.2-1.3c-0.5,0.5-1,0.8-1.6,1c-0.6,0.2-1.3,0.4-2,0.4c-1.1,0-2-0.3-2.6-0.9
			c-0.6-0.6-1-1.4-1-2.5c0-0.4,0-0.7,0.1-1.2l1.1-5.6h1.8l-1.1,5.6c-0.1,0.3-0.1,0.6-0.1,0.9c0,0.7,0.2,1.2,0.6,1.5
			c0.4,0.3,1,0.5,1.7,0.5c1,0,1.8-0.3,2.4-0.8c0.6-0.5,1.1-1.3,1.3-2.4l1.1-5.3H451.5z M443.5,191.6c-0.2-0.2-0.2-0.4-0.2-0.6
			c0-0.3,0.1-0.5,0.3-0.7c0.2-0.2,0.5-0.3,0.8-0.3c0.3,0,0.5,0.1,0.6,0.2c0.2,0.2,0.2,0.4,0.2,0.6c0,0.3-0.1,0.6-0.3,0.8
			c-0.2,0.2-0.5,0.3-0.8,0.3C443.9,191.9,443.7,191.8,443.5,191.6z"/>
	</g>
	<polygon class="st0" points="172.8,114.2 186.9,103.3 198,103.3 207.9,114.2 197.1,114.2 191.9,108.1 184.3,114.2 	"/>
</g>
</svg>
