<?xml version="1.0" encoding="utf-8"?>
<!-- Generator: Adobe Illustrator 27.2.0, SVG Export Plug-In . SVG Version: 6.00 Build 0)  -->
<svg version="1.1" id="Layer_1" xmlns="http://www.w3.org/2000/svg" xmlns:xlink="http://www.w3.org/1999/xlink" x="0px" y="0px"
	 viewBox="0 0 495.57 290.81" style="enable-background:new 0 0 495.57 290.81;" xml:space="preserve">
<style type="text/css">
	.st0{fill:#FFFFFF;}
</style>
<g>
	<g id="XMLID_00000142861099716058779760000015777247575642775225_">
		<path id="XMLID_00000007391093577248511400000004475990367963738771_" class="st0" d="M147.96,215.62
			c0.15,8.67-7.23,15.76-15.9,15.76H99.77c0,0,11.14-1.88,18.54-4.54c1.16-0.42,1.62-1.79,0.97-2.84c-1.45-2.36-2.29-5.13-2.29-8.1
			c0-5.83,3.23-10.91,7.98-13.55c2.22-1.24,4.78-1.94,7.51-1.94c7.26,0,13.36,5,15.03,11.73
			C147.79,213.25,147.94,214.42,147.96,215.62z"/>
		<path id="XMLID_00000129181356295064504470000013922441060374902970_" class="st0" d="M223.25,189.62
			c-0.01-0.97-0.02-1.97-0.03-3.02c-0.01-1.3-0.03-2.66-0.05-4.07c-0.04-2.56-0.06-4.77-0.09-6.65c-0.03-1.87-0.05-2.87-0.08-2.97
			c0.03-0.11,0.03-0.19,0.02-0.25c-0.24-7.45-3.3-14.02-9.18-19.73c-5.89-5.76-12.51-8.64-19.85-8.64h-39.87
			c-0.98,0-1.87-0.38-2.66-1.14c-0.79-0.76-1.24-1.66-1.35-2.69c0-0.44-0.01-1.21-0.03-2.33c-0.02-1.11-0.04-2.32-0.08-3.63
			c-0.04-1.31-0.06-2.94-0.08-4.89c0.06-0.59,0.3-1.14,0.72-1.63c0.43-0.44,1.02-0.65,1.79-0.65h69.96
			c-0.05-0.82-0.1-2.53-0.15-5.14c-0.05-2.61-0.09-5.45-0.12-8.52c-0.03-3.07-0.1-6.92-0.21-11.54h-79.58
			c-10.87,0-17.09,5.92-18.65,17.78c0.01,0.87,0.03,2.7,0.08,5.51c0.04,2.8,0.08,5.66,0.1,8.6c0.03,2.93,0.03,5.03,0.03,6.28
			l0.03,0.73c0.03,0.11,0.05,0.19,0.06,0.24c0.23,7.61,3.3,14.22,9.2,19.82c5.85,5.6,12.47,8.4,19.87,8.4h40.12
			c0.98,0,1.87,0.41,2.68,1.23c0.81,0.82,1.15,1.71,1.02,2.69c0,0.44,0.01,1.21,0.03,2.32c0.02,1.12,0.05,2.33,0.08,3.63
			c0.04,1.3,0.07,2.93,0.08,4.89c-0.19,1.58-1.05,2.36-2.57,2.36h-85.7L75.34,59.43H41.23c-7.03,0-12.76,5.72-12.76,12.76
			c0,7.03,5.73,12.76,12.76,12.76h14.43l33.47,127.18h24.04c1.1-5.63,4.63-10.59,9.76-13.44c2.9-1.61,6.2-2.47,9.55-2.47
			c9.05,0,16.91,6.13,19.09,14.9c0.08,0.33,0.15,0.67,0.22,1.01h13.81c0.07-0.34,0.14-0.68,0.22-1.01
			c2.18-8.77,10.04-14.9,19.09-14.9c9.05,0,16.91,6.13,19.09,14.9c0.08,0.33,0.15,0.67,0.22,1.01h1c5.41-0.1,9.74-1.79,13-5.05
			c3.36-3.42,5.07-7.83,5.15-13.21C223.31,193.21,223.27,191.8,223.25,189.62z"/>
		<path id="XMLID_00000000921817411293273270000001624376863831328418_" class="st0" d="M200.41,216.06
			c-0.09,8.56-7.34,15.32-15.9,15.32H152.2c0,0,11.14-1.88,18.54-4.54c1.16-0.42,1.62-1.79,0.97-2.84c-1.45-2.35-2.29-5.13-2.29-8.1
			c0-1.3,0.16-2.56,0.46-3.76c1.68-6.73,7.78-11.73,15.04-11.73c7.26,0,13.36,5,15.03,11.73
			C200.26,213.39,200.42,214.7,200.41,216.06z"/>
	</g>
	<polygon class="st0" points="288.69,196.3 288.69,160.7 251.09,160.7 251.09,196.3 234.97,196.3 234.97,108.97 251.09,108.97 
		251.09,144.57 288.69,144.57 288.69,108.97 304.81,108.97 304.81,196.3 	"/>
	<path class="st0" d="M411.5,195.67v-87.11h13.96c10.46,0,19.48,3.04,26.8,9.03l0.05,0.04c3.97,3.5,6.7,6.8,8.6,10.39
		c2.23,4.24,3.36,8.77,3.36,13.45c0,4.9-1.13,9.42-3.36,13.45c-2,3.98-4.91,7.56-8.65,10.64c-6.83,5.59-15.11,8.67-24.64,9.18v20.92
		H411.5z M427.62,158.58c5.48-0.47,10.23-2.32,14.46-5.64c4.09-3.12,6.07-6.87,6.07-11.48c0-4.47-1.98-8.15-6.06-11.26l-0.05-0.04
		c-4.07-3.36-8.8-5.15-14.42-5.45V158.58z"/>
	<path class="st0" d="M403.62,189.56c0.04,0.5-0.15,0.98-0.5,1.37c-0.61,0.63-1.61,0.7-2.33,0.17c-1.15-0.85-2.29-1.72-3.44-2.59
		l-7.27-5.48l-2.35-1.61l-0.72,13.45c-0.02-0.02-0.06-0.06-0.15-0.19l-11.3-16.93c-3.16-4.75-6.33-9.51-9.51-14.24
		c-0.15-0.22-0.17-0.31-0.18-0.31c0,0,0.02,0,0.02-0.02c0.13,0.02,0.33,0.07,0.43,0.09c5.03,1.48,10.06,2.94,15.1,4.4l20.48,5.96
		c0.15,0.04,0.2,0.07,0.09,0.17l-11.53,5.08l12.4,9.37C403.31,188.58,403.56,189.05,403.62,189.56z"/>
	<path class="st0" d="M401.97,173.8c0.11-0.09,0.06-0.13-0.09-0.17l-5.52-1.61c-0.93,1.89-2.03,3.71-3.25,5.47L401.97,173.8z"/>
	<path class="st0" d="M380.64,167.46c-4.78-1.39-9.56-2.78-14.33-4.18c-0.09-0.02-0.3-0.07-0.43-0.09c0,0.02-0.02,0.02-0.02,0.02
		c0.02,0,0.04,0.09,0.18,0.31c2.59,3.85,5.16,7.73,7.74,11.59c1.18-0.9,2.33-1.88,3.42-3.02
		C378.53,170.61,379.67,169.06,380.64,167.46z"/>
	<path class="st0" d="M386.86,194.69c0.09,0.13,0.13,0.17,0.15,0.19l0.58-10.77c-1.57,1.6-3.19,3.05-4.9,4.34L386.86,194.69z"/>
	<path class="st0" d="M371.45,176.7c-3.81,2.29-8.01,3.47-12.56,3.47c-7.05,0-13.14-2.72-18.1-8.08c-5-5.4-7.54-12.09-7.54-19.88
		c0-7.62,2.47-13.98,7.54-19.46c4.96-5.36,11.05-8.08,18.1-8.08c6.99,0,13.16,2.73,18.31,8.08c5.07,5.48,7.54,11.85,7.54,19.46
		c0,4.63-0.91,8.83-2.74,12.69c0.06,0.02,0.13,0.04,0.19,0.06l15.35,4.47c2.19-5.31,3.32-11.05,3.32-17.21
		c0-11.48-4.12-21.87-12.28-30.9c-8.03-8.47-18.03-12.76-29.7-12.76c-11.82,0-21.88,4.29-29.94,12.79
		c-7.84,8.72-11.82,19.1-11.82,30.87c0,11.98,3.98,22.37,11.84,30.89c8.1,8.76,18.17,13.2,29.93,13.2c7.95,0,15.13-2.13,21.47-6.25
		l-7.15-10.71C372.62,178.46,372.04,177.58,371.45,176.7z"/>
	<g>
		<g>
			<path class="st0" d="M279.78,211.77c-1.01-1.66-2.39-2.97-4.14-3.91c-1.75-0.95-3.73-1.42-5.92-1.42c-2.2,0-4.17,0.47-5.94,1.42
				c-1.76,0.95-3.14,2.25-4.14,3.91c-1,1.66-1.5,3.53-1.5,5.6c0,2.07,0.5,3.94,1.5,5.6c1,1.66,2.38,2.97,4.14,3.91
				c1.09,0.59,2.28,0.97,3.54,1.19c-0.12-0.31-0.19-0.65-0.19-1.03c0-0.75,0.24-1.37,0.73-1.87c0.49-0.5,1.1-0.75,1.85-0.75
				c0.72,0,1.33,0.25,1.84,0.75c0.5,0.5,0.75,1.12,0.75,1.87c0,0.38-0.06,0.72-0.19,1.02c1.26-0.22,2.44-0.61,3.52-1.19
				c1.75-0.95,3.13-2.25,4.14-3.91c1.01-1.66,1.51-3.53,1.51-5.6C281.29,215.3,280.78,213.43,279.78,211.77z M275.47,220.87
				c-0.57,1.03-1.36,1.83-2.37,2.4c-1.01,0.57-2.13,0.86-3.38,0.86c-1.25,0-2.38-0.29-3.38-0.86c-1.01-0.57-1.8-1.37-2.37-2.4
				c-0.57-1.03-0.86-2.19-0.86-3.5c0-1.31,0.29-2.48,0.86-3.5c0.57-1.03,1.36-1.83,2.37-2.4c1.01-0.57,2.13-0.86,3.38-0.86
				c1.25,0,2.38,0.29,3.38,0.86c1.01,0.57,1.8,1.37,2.37,2.4c0.57,1.03,0.86,2.19,0.86,3.5
				C276.33,218.68,276.05,219.85,275.47,220.87z"/>
			<path class="st0" d="M268.22,228.51c-0.39-0.37-0.59-0.86-0.59-1.47c0-0.6,0.2-1.11,0.59-1.51c0.39-0.4,0.89-0.6,1.5-0.6
				c0.58,0,1.08,0.2,1.48,0.6c0.4,0.4,0.6,0.91,0.6,1.51c0,0.6-0.2,1.09-0.59,1.47c-0.39,0.37-0.89,0.56-1.5,0.56
				S268.62,228.88,268.22,228.51z"/>
			<path class="st0" d="M331.22,224.43c0.72,0,1.33,0.25,1.84,0.75c0.29,0.29,0.49,0.64,0.61,1.02v-19.4h-4.89v19.38
				c0.12-0.37,0.31-0.71,0.59-1C329.85,224.68,330.47,224.43,331.22,224.43z"/>
			<path class="st0" d="M328.77,227.94L328.77,227.94c0.01-0.01,0-0.02,0-0.03V227.94z"/>
			<path class="st0" d="M254.46,206.8v21.14h-4.02l-10.54-12.84v12.84h-4.83V206.8h4.05l10.51,12.84V206.8H254.46z"/>
			<polygon class="st0" points="271.54,205.74 269.72,204.14 267.89,205.74 265.5,205.74 268.27,202.72 271.17,202.72 
				273.94,205.74 			"/>
			<polygon class="st0" points="430.08,205.74 428.25,204.14 426.43,205.74 424.03,205.74 426.8,202.72 429.7,202.72 432.47,205.74 
							"/>
			<path class="st0" d="M284.97,206.8h4.89v21.14h-4.89V206.8z"/>
			<path class="st0" d="M300.95,215.56H314v3.26h-13.05V215.56z M303.82,206.8h9.6c2.3,0,4.32,0.44,6.09,1.31
				c1.76,0.88,3.13,2.11,4.11,3.7c0.98,1.59,1.47,3.44,1.47,5.56c0,2.12-0.49,3.97-1.47,5.56c-0.98,1.59-2.35,2.82-4.11,3.7
				c-1.76,0.88-3.79,1.31-6.09,1.31h-9.6V206.8z M313.18,223.93c2.11,0,3.8-0.59,5.06-1.77c1.26-1.18,1.89-2.77,1.89-4.79
				c0-2.01-0.63-3.61-1.89-4.79c-1.26-1.18-2.94-1.77-5.06-1.77h-4.47v13.11H313.18z"/>
			<path class="st0" d="M329.72,228.51c-0.39-0.37-0.59-0.86-0.59-1.47c0-0.6,0.2-1.11,0.59-1.51c0.39-0.4,0.89-0.6,1.5-0.6
				c0.58,0,1.08,0.2,1.48,0.6c0.4,0.4,0.6,0.91,0.6,1.51c0,0.6-0.2,1.09-0.59,1.47c-0.39,0.37-0.89,0.56-1.5,0.56
				C330.61,229.07,330.11,228.88,329.72,228.51z"/>
			<path class="st0" d="M352.6,223.41h-9.82l-1.87,4.53h-5.01l9.42-21.14h4.83l9.45,21.14h-5.14L352.6,223.41z M351.06,219.7
				l-3.35-8.09l-3.35,8.09H351.06z"/>
			<path class="st0" d="M389.75,206.8v21.14h-4.02l-10.54-12.84v12.84h-4.83V206.8h4.05l10.51,12.84V206.8H389.75z"/>
			<path class="st0" d="M414.16,206.8v21.14h-4.89v-8.67h-9.6v8.67h-4.89V206.8h4.89v8.34h9.6v-8.34H414.16z"/>
			<path class="st0" d="M430.65,206.8h-4.83l-9.42,21.14h5.01l1.87-4.53h9.82l1.87,4.53h5.14L430.65,206.8z M424.85,219.7l3.35-8.09
				l3.35,8.09H424.85z"/>
			<path class="st0" d="M426.74,228.51c-0.39-0.37-0.59-0.86-0.59-1.47c0-0.6,0.2-1.11,0.59-1.51c0.39-0.4,0.89-0.6,1.5-0.6
				c0.58,0,1.08,0.2,1.48,0.6c0.4,0.4,0.6,0.91,0.6,1.51c0,0.6-0.2,1.09-0.59,1.47c-0.39,0.37-0.89,0.56-1.5,0.56
				S427.13,228.88,426.74,228.51z"/>
			<path class="st0" d="M445.63,210.79h-6.77v-3.99h18.43v3.99h-6.77v17.16h-4.89V210.79z"/>
		</g>
	</g>
</g>
</svg>
