<?xml version="1.0" encoding="UTF-8"?>
<svg id="Layer_1" data-name="Layer 1" xmlns="http://www.w3.org/2000/svg" viewBox="0 0 495.57 290.81">
  <defs>
    <style>
      .cls-1 {
        fill: #fff;
      }
    </style>
  </defs>
  <g>
    <path class="cls-1" d="m144.58,199.45l7.67-51.34h21.92l-1.03,6.92h-14.57l-2.33,15.58h12.69l-1.03,6.92h-12.69l-3.27,21.92h-7.36Z"/>
    <path class="cls-1" d="m201.06,159.28l-.54,3.61h-7.36l.25-1.66c.62-4.13-.8-6.2-4.27-6.2s-5.31,2.21-5.97,6.63c-.32,2.12-.31,3.56,0,4.33.38.96,1.44,1.8,3.16,2.52l5.29,2.24c2.9,1.2,4.73,2.93,5.5,5.19.67,1.92.71,4.88.12,8.87-1.5,10.05-6.48,15.07-14.94,15.07-3.56,0-6.36-1.16-8.42-3.5-2.06-2.33-2.82-5.23-2.31-8.69l.41-2.74h7.36l-.34,2.31c-.52,3.51.94,5.26,4.4,5.26,2.26,0,3.88-.7,4.86-2.09.67-.96,1.21-2.81,1.62-5.55.37-2.45.44-4.06.22-4.83-.36-1.15-1.46-2.14-3.31-2.96l-4.94-2.16c-2.84-1.25-4.7-2.98-5.57-5.19-.82-1.92-.97-4.59-.46-8,.61-4.09,2.16-7.4,4.66-9.95,2.67-2.74,6.02-4.11,10.06-4.11,3.51,0,6.28,1.23,8.32,3.68,1.91,2.31,2.65,4.95,2.2,7.93Z"/>
    <path class="cls-1" d="m200.54,199.45l7.67-51.34h21.92l-1.03,6.92h-14.57l-2.33,15.58h12.69l-1.03,6.92h-12.69l-3.27,21.92h-7.36Z"/>
    <path class="cls-1" d="m227.44,199.45l7.67-51.34h7.36l-7.67,51.34h-7.36Z"/>
    <path class="cls-1" d="m241.64,199.45l7.67-51.34h7.12l6.57,30.94,4.62-30.94h7.36l-7.67,51.34h-6.98l-6.73-30.86-4.61,30.86h-7.36Z"/>
    <path class="cls-1" d="m270.63,199.45l19.13-51.34h6.13l3.8,51.34h-7.36l-.52-11.03h-10.02l-3.81,11.03h-7.36Zm20.85-17.96l-.83-18.61h-.14l-6.38,18.61h7.36Z"/>
    <path class="cls-1" d="m303.01,199.45l7.67-51.34h7.12l6.57,30.94,4.62-30.94h7.36l-7.67,51.34h-6.98l-6.73-30.86-4.61,30.86h-7.36Z"/>
    <path class="cls-1" d="m360.86,184.81l-.47,3.17c-.48,3.22-2.04,6.01-4.68,8.36-2.64,2.36-5.56,3.53-8.78,3.53s-5.91-.84-7.77-2.52c-2.33-2.12-3.17-5.31-2.53-9.59l4.22-28.27c.51-3.41,2.05-6.24,4.62-8.47,2.57-2.24,5.61-3.35,9.12-3.35s6.06,1.15,7.96,3.46,2.57,5.24,2.04,8.8l-.43,2.88h-7.36l.37-2.45c.22-1.49-.01-2.75-.7-3.79-.69-1.03-1.7-1.55-3.05-1.55-3.03,0-4.84,2-5.44,5.99l-3.92,26.25c-.52,3.51.7,5.26,3.68,5.26s4.87-1.73,5.39-5.19l.38-2.52h7.36Z"/>
    <path class="cls-1" d="m364.88,199.45l7.67-51.34h7.36l-7.67,51.34h-7.36Z"/>
    <path class="cls-1" d="m376.05,199.45l19.13-51.34h6.13l3.8,51.34h-7.36l-.52-11.03h-10.02l-3.81,11.03h-7.36Zm20.85-17.96l-.83-18.61h-.14l-6.38,18.61h7.36Z"/>
    <path class="cls-1" d="m408.72,199.45l7.67-51.34h7.36l-6.57,43.99h14.57l-1.1,7.36h-21.92Z"/>
  </g>
  <g>
    <path class="cls-1" d="m149.66,219.45c.19,0,.36,0,.53-.03s.32-.05.46-.08c.14-.04.28-.08.42-.13.13-.05.26-.11.39-.18l.23-1.82h-1.1c-.09,0-.15-.02-.2-.07-.05-.05-.07-.11-.06-.18l.09-.79h2.64l-.43,3.46c-.22.16-.45.3-.69.42s-.49.22-.75.3c-.26.08-.54.14-.83.18s-.61.06-.94.06c-.53,0-1.02-.1-1.46-.29-.44-.19-.81-.46-1.12-.81-.31-.34-.55-.76-.72-1.23-.17-.48-.25-1-.25-1.56,0-.75.12-1.44.36-2.07.24-.63.57-1.17.98-1.62.42-.45.91-.8,1.49-1.06.58-.25,1.2-.38,1.87-.38.35,0,.67.03.95.09s.54.15.77.25c.23.11.44.23.62.37.18.14.35.3.5.46l-.44.58c-.07.11-.16.17-.26.19-.1.02-.21,0-.31-.07-.11-.07-.22-.14-.33-.22-.11-.08-.24-.15-.39-.22-.15-.07-.32-.13-.52-.17s-.43-.07-.7-.07c-.47,0-.91.09-1.3.28-.39.18-.73.44-1.01.78s-.5.75-.65,1.22c-.15.48-.23,1.01-.23,1.59,0,.44.06.84.17,1.18.11.35.27.64.48.89.21.24.46.43.75.56.29.13.62.2.98.2Z"/>
    <path class="cls-1" d="m155.8,220.46h-1.38l1.08-8.81h1.38l-1.08,8.81Z"/>
    <path class="cls-1" d="m164.86,220.46h-1.06c-.12,0-.22-.03-.28-.09-.07-.06-.11-.14-.14-.24l-.42-1.98h-3.43l-.9,1.98c-.04.09-.11.16-.19.23-.09.07-.19.1-.3.1h-1.08l4.29-8.81h1.4l2.13,8.81Zm-4.89-3.29h2.77l-.69-3.3c-.02-.13-.05-.27-.08-.43-.03-.16-.06-.34-.09-.53-.07.19-.14.37-.21.54-.07.17-.13.31-.19.44l-1.51,3.29Zm1.11-7.61c.13-.09.3-.17.51-.23s.43-.09.65-.09c.37,0,.64.07.81.22.18.15.25.34.22.57-.02.21-.11.37-.27.5-.15.12-.34.22-.55.28l-.13.34h-.58l.07-.67c.2-.03.35-.07.44-.13.09-.06.14-.12.15-.2,0-.08-.02-.15-.09-.2s-.17-.08-.3-.08c-.07,0-.14,0-.2.02-.06.02-.12.04-.17.06-.05.02-.1.04-.14.06-.04.02-.08.03-.1.03-.04,0-.07-.01-.09-.03-.02-.02-.04-.05-.06-.09l-.18-.35Z"/>
    <path class="cls-1" d="m167.49,220.46h-1.38l1.08-8.81h1.38l-1.08,8.81Z"/>
    <path class="cls-1" d="m174.48,217.25l-.39,3.21h-1.37l1.08-8.81h2.56c.48,0,.9.06,1.25.17.35.12.64.28.87.49.23.21.4.46.51.75s.16.61.16.96c0,.47-.07.9-.22,1.29-.15.39-.37.73-.66,1.02s-.66.51-1.09.67c-.44.16-.94.24-1.51.24h-1.19Zm.56-4.52l-.42,3.43h1.19c.33,0,.61-.05.86-.15.25-.1.45-.24.61-.42.16-.18.28-.39.37-.64.08-.25.12-.52.12-.81,0-.43-.13-.78-.38-1.03-.25-.26-.64-.39-1.17-.39h-1.18Z"/>
    <path class="cls-1" d="m186.72,220.46h-1.38l.48-3.94h-3.99l-.48,3.94h-1.38l1.08-8.81h1.39l-.48,3.88h3.99l.48-3.88h1.39l-1.09,8.81Z"/>
    <path class="cls-1" d="m195.79,220.46h-1.06c-.12,0-.22-.03-.28-.09-.07-.06-.11-.14-.14-.24l-.42-1.98h-3.43l-.9,1.98c-.04.09-.11.16-.19.23-.09.07-.19.1-.3.1h-1.08l4.29-8.81h1.4l2.13,8.81Zm-4.89-3.29h2.77l-.69-3.3c-.02-.13-.05-.27-.08-.43-.03-.16-.06-.34-.09-.53-.07.19-.14.37-.21.54-.07.17-.13.31-.19.44l-1.51,3.29Zm4.64-8.07l-2.02,1.75c-.08.07-.15.11-.21.12-.06.02-.14.02-.23.02h-.86l1.43-1.67c.04-.05.08-.09.12-.12.04-.03.08-.05.12-.07.04-.02.09-.03.14-.03s.11,0,.18,0h1.35Z"/>
    <path class="cls-1" d="m198.8,217.25l-.39,3.21h-1.37l1.08-8.81h2.56c.48,0,.9.06,1.25.17.35.12.64.28.87.49.23.21.4.46.51.75s.16.61.16.96c0,.47-.07.9-.22,1.29-.15.39-.37.73-.66,1.02s-.66.51-1.09.67c-.44.16-.94.24-1.51.24h-1.19Zm.56-4.52l-.42,3.43h1.19c.33,0,.61-.05.86-.15.25-.1.45-.24.61-.42.16-.18.28-.39.37-.64.08-.25.12-.52.12-.81,0-.43-.13-.78-.38-1.03-.25-.26-.64-.39-1.17-.39h-1.18Z"/>
    <path class="cls-1" d="m213.28,211.65l-.15,1.15h-2.5l-.94,7.66h-1.37l.94-7.66h-2.51l.14-1.15h6.39Z"/>
    <path class="cls-1" d="m219.69,220.46h-1.06c-.12,0-.22-.03-.28-.09-.07-.06-.11-.14-.14-.24l-.42-1.98h-3.43l-.9,1.98c-.04.09-.11.16-.19.23-.09.07-.19.1-.3.1h-1.08l4.29-8.81h1.4l2.13,8.81Zm-3.67-11.36c.07,0,.13,0,.18,0,.05,0,.09.01.13.03.04.02.07.04.1.07.03.03.06.07.09.12l1.06,1.67h-.87c-.09,0-.17,0-.22-.02-.06-.01-.11-.05-.17-.12l-1.58-1.76h1.27Zm-1.22,8.07h2.77l-.69-3.3c-.02-.13-.05-.27-.08-.43-.03-.16-.06-.34-.09-.53-.07.19-.14.37-.21.54-.07.17-.13.31-.19.44l-1.51,3.29Z"/>
    <path class="cls-1" d="m222.32,220.46h-1.38l1.08-8.81h1.38l-1.08,8.81Z"/>
    <path class="cls-1" d="m231.19,219.37c.26,0,.48-.02.68-.06.2-.04.37-.09.52-.16.15-.06.27-.13.38-.2.1-.07.19-.14.27-.2.08-.06.15-.12.2-.16.06-.04.11-.06.17-.06.04,0,.08,0,.11.03.03.02.05.04.07.06l.48.61c-.38.42-.83.75-1.34.99s-1.1.35-1.77.35c-.53,0-1.01-.1-1.43-.29-.42-.19-.78-.46-1.06-.79-.29-.34-.51-.74-.66-1.21-.15-.47-.23-.98-.23-1.54,0-.76.12-1.46.36-2.1.24-.63.57-1.18.99-1.64s.91-.81,1.48-1.06,1.17-.38,1.82-.38c.32,0,.61.03.87.09s.49.14.7.24c.21.1.4.23.57.38.17.15.33.31.47.49l-.47.58s-.08.08-.13.12c-.05.03-.11.05-.18.05-.05,0-.11-.02-.16-.06-.05-.04-.11-.08-.18-.14-.07-.06-.14-.11-.23-.18-.09-.06-.19-.12-.32-.18-.12-.05-.27-.1-.43-.14-.16-.04-.36-.06-.58-.06-.45,0-.87.09-1.25.27-.39.18-.72.44-1.01.77-.28.33-.51.74-.67,1.22-.16.48-.24,1.01-.24,1.6,0,.43.05.81.16,1.16.11.34.26.63.46.87.2.24.43.42.7.54.27.13.57.19.89.19Z"/>
    <path class="cls-1" d="m242.17,220.46h-1.38l.48-3.94h-3.99l-.48,3.94h-1.38l1.08-8.81h1.39l-.48,3.88h3.99l.48-3.88h1.39l-1.09,8.81Z"/>
    <path class="cls-1" d="m245.78,220.46h-1.38l1.08-8.81h1.38l-1.08,8.81Zm3.03-11.36l-2.02,1.75c-.08.07-.15.11-.21.12-.06.02-.14.02-.23.02h-.86l1.43-1.67c.04-.05.08-.09.12-.12.04-.03.08-.05.12-.07.04-.02.09-.03.14-.03.05,0,.11,0,.18,0h1.35Z"/>
    <path class="cls-1" d="m250.07,211.69c.05.03.11.09.17.19l3.6,6.34c0-.11.02-.21.02-.31,0-.1.02-.2.03-.29l.73-5.97h1.22l-1.09,8.81h-.7c-.11,0-.2-.02-.27-.06-.07-.04-.13-.1-.2-.19l-3.59-6.34c0,.09-.02.18-.02.27s-.01.16-.02.24l-.75,6.09h-1.21l1.08-8.81h.72c.12,0,.21.01.27.04Z"/>
    <path class="cls-1" d="m263.74,220.46h-1.38l.48-3.94h-3.99l-.48,3.94h-1.38l1.08-8.81h1.39l-.48,3.88h3.99l.48-3.88h1.39l-1.09,8.81Z"/>
    <path class="cls-1" d="m275.27,211.65l-.15,1.15h-2.5l-.94,7.66h-1.37l.94-7.66h-2.51l.14-1.15h6.39Z"/>
    <path class="cls-1" d="m283.61,215.45c0,.49-.05.96-.16,1.4-.11.44-.26.86-.46,1.23-.2.38-.44.72-.72,1.02-.28.3-.6.56-.94.78-.35.21-.72.38-1.13.5s-.83.17-1.28.17c-.55,0-1.05-.1-1.49-.29-.44-.2-.82-.47-1.13-.81s-.54-.75-.71-1.23-.25-.99-.25-1.55c0-.49.05-.96.16-1.41.11-.44.26-.86.46-1.24.19-.38.43-.72.72-1.03s.6-.57.94-.78c.35-.21.72-.38,1.13-.49s.83-.17,1.28-.17c.55,0,1.05.1,1.49.29s.82.47,1.13.82c.31.35.55.76.71,1.24.17.48.25.99.25,1.55Zm-1.42.03c0-.42-.05-.8-.16-1.14-.1-.34-.26-.63-.46-.88-.2-.24-.44-.43-.73-.56-.29-.13-.61-.2-.97-.2-.46,0-.88.09-1.26.28-.38.19-.71.45-.98.79-.27.34-.48.76-.63,1.24-.15.48-.23,1.02-.23,1.61,0,.42.05.8.16,1.14.11.34.26.63.46.88.2.24.44.43.73.56s.61.2.97.2c.47,0,.89-.09,1.27-.28.38-.19.71-.45.98-.79.27-.34.48-.75.63-1.24s.22-1.02.22-1.62Zm-.13-4.48h-.88c-.05,0-.11-.01-.18-.03-.07-.02-.14-.08-.2-.18l-.47-.74s-.04-.07-.06-.12l-.09.12-.64.74c-.09.1-.17.16-.24.18-.07.02-.14.03-.19.03h-.84l1.54-1.68h1.09l1.16,1.68Zm2-2.5l-1.52,1.33c-.15.15-.29.22-.41.2s-.22-.09-.31-.22l-.14-.22.68-.81c.07-.09.14-.17.21-.22s.17-.08.31-.08h1.18Z"/>
    <path class="cls-1" d="m286.15,220.46h-1.38l1.08-8.81h1.38l-1.08,8.81Z"/>
    <path class="cls-1" d="m294.73,219.35c.31,0,.59-.06.84-.17.25-.12.48-.28.67-.49.19-.21.35-.46.47-.75s.21-.61.25-.96l.65-5.32h1.38l-.15,1.26c.36,0,.64-.09.84-.24s.31-.34.31-.58c0-.06,0-.12-.02-.16-.02-.05-.03-.1-.05-.14-.02-.05-.03-.1-.05-.15s-.02-.11-.02-.18c0-.22.06-.39.19-.51.13-.11.32-.17.59-.17h.68s.01.1.02.18c0,.08,0,.14,0,.18,0,.36-.06.68-.17.98-.11.3-.28.55-.49.77-.22.21-.48.38-.8.5-.32.12-.69.18-1.1.19l-.42,3.41c-.07.51-.2.99-.41,1.43-.21.44-.48.82-.8,1.14-.33.32-.71.57-1.14.75-.43.18-.91.27-1.42.27s-.96-.09-1.35-.27c-.39-.18-.7-.43-.95-.75-.25-.32-.42-.7-.52-1.14-.1-.44-.12-.91-.05-1.43l.64-5.32h1.38l-.65,5.32c-.05.35-.04.67.01.96s.15.54.29.75.32.37.55.49.49.17.8.17Z"/>
    <path class="cls-1" d="m304.78,219.35c.31,0,.59-.06.84-.17.25-.12.48-.28.67-.49.19-.21.35-.46.47-.75s.21-.61.25-.96l.65-5.32h1.38l-.65,5.32c-.07.51-.2.99-.41,1.43-.21.44-.48.82-.8,1.14-.33.32-.71.57-1.14.75-.43.18-.91.27-1.42.27s-.96-.09-1.35-.27c-.39-.18-.7-.43-.95-.75-.25-.32-.42-.7-.52-1.14-.1-.44-.12-.91-.05-1.43l.64-5.32h1.38l-.65,5.32c-.05.35-.04.67.01.96s.15.54.29.75.32.37.55.49.49.17.8.17Z"/>
    <path class="cls-1" d="m316.74,219.37c.26,0,.48-.02.68-.06s.37-.09.52-.16c.15-.06.27-.13.38-.2.1-.07.2-.14.27-.2.08-.06.14-.12.2-.16.06-.04.11-.06.16-.06.05,0,.08,0,.11.03s.05.04.07.06l.48.61c-.38.42-.83.75-1.34.99-.51.23-1.1.35-1.77.35-.53,0-1.01-.1-1.43-.29-.42-.19-.77-.46-1.06-.79s-.51-.74-.66-1.21c-.15-.47-.23-.98-.23-1.54,0-.76.12-1.46.36-2.1.24-.63.57-1.18.99-1.64s.91-.81,1.48-1.06,1.17-.38,1.82-.38c.32,0,.61.03.87.09.26.06.49.14.7.24.21.1.4.23.57.38.17.15.33.31.47.49l-.47.58s-.08.08-.13.12c-.05.03-.11.05-.18.05-.05,0-.1-.02-.16-.06s-.11-.08-.18-.14c-.07-.06-.14-.11-.23-.18-.09-.06-.19-.12-.32-.18-.12-.05-.27-.1-.43-.14s-.36-.06-.58-.06c-.45,0-.87.09-1.25.27-.39.18-.72.44-1.01.77-.28.33-.51.74-.67,1.22-.16.48-.24,1.01-.24,1.6,0,.43.06.81.17,1.16.11.34.26.63.46.87.2.24.43.42.7.54.27.13.57.19.89.19Z"/>
    <path class="cls-1" d="m327.72,220.46h-1.38l.48-3.94h-3.99l-.48,3.94h-1.38l1.08-8.81h1.39l-.48,3.88h3.99l.48-3.88h1.39l-1.09,8.81Z"/>
    <path class="cls-1" d="m338.22,215.45c0,.49-.05.96-.16,1.4-.11.44-.26.86-.46,1.23-.2.38-.44.72-.72,1.02-.28.3-.6.56-.94.78-.35.21-.72.38-1.13.5s-.83.17-1.28.17c-.55,0-1.05-.1-1.49-.29-.44-.2-.82-.47-1.13-.81s-.54-.75-.71-1.23-.25-.99-.25-1.55c0-.49.05-.96.16-1.41.11-.44.26-.86.46-1.24.19-.38.43-.72.72-1.03s.6-.57.94-.78c.35-.21.72-.38,1.13-.49s.83-.17,1.28-.17c.55,0,1.05.1,1.49.29s.82.47,1.13.82c.31.35.55.76.71,1.24.17.48.25.99.25,1.55Zm-1.42.03c0-.42-.05-.8-.16-1.14-.1-.34-.26-.63-.46-.88-.2-.24-.44-.43-.73-.56-.29-.13-.61-.2-.97-.2-.46,0-.88.09-1.26.28-.38.19-.71.45-.98.79-.27.34-.48.76-.63,1.24-.15.48-.23,1.02-.23,1.61,0,.42.05.8.16,1.14.11.34.26.63.46.88.2.24.44.43.73.56s.61.2.97.2c.47,0,.89-.09,1.27-.28.38-.19.71-.45.98-.79.27-.34.48-.75.63-1.24s.22-1.02.22-1.62Z"/>
    <path class="cls-1" d="m350.11,215.45c0,.49-.05.96-.16,1.4-.11.44-.26.84-.45,1.21-.19.37-.43.71-.71,1s-.59.55-.94.76-.72.36-1.13.47c-.41.11-.83.17-1.28.17h-3.07l1.08-8.81h3.08c.55,0,1.05.09,1.49.28.44.19.82.45,1.13.79s.55.74.71,1.2c.17.46.25.97.25,1.53Zm-1.41.04c0-.42-.05-.79-.16-1.13-.1-.34-.26-.62-.45-.86-.2-.24-.44-.42-.73-.55-.29-.13-.61-.19-.97-.19h-1.69l-.82,6.58h1.69c.46,0,.89-.09,1.27-.27.38-.18.71-.43.99-.76.27-.33.48-.74.64-1.21.15-.48.23-1.02.23-1.61Z"/>
    <path class="cls-1" d="m359.55,215.45c0,.49-.05.96-.16,1.4-.11.44-.26.86-.46,1.23-.2.38-.44.72-.72,1.02-.28.3-.6.56-.94.78-.35.21-.72.38-1.13.5s-.83.17-1.28.17c-.55,0-1.05-.1-1.49-.29-.44-.2-.82-.47-1.13-.81s-.54-.75-.71-1.23-.25-.99-.25-1.55c0-.49.05-.96.16-1.41.11-.44.26-.86.46-1.24.19-.38.43-.72.72-1.03s.6-.57.94-.78c.35-.21.72-.38,1.13-.49s.83-.17,1.28-.17c.55,0,1.05.1,1.49.29s.82.47,1.13.82c.31.35.55.76.71,1.24.17.48.25.99.25,1.55Zm-1.42.03c0-.42-.05-.8-.16-1.14-.1-.34-.26-.63-.46-.88-.2-.24-.44-.43-.73-.56-.29-.13-.61-.2-.97-.2-.46,0-.88.09-1.26.28-.38.19-.71.45-.98.79-.27.34-.48.76-.63,1.24-.15.48-.23,1.02-.23,1.61,0,.42.05.8.16,1.14.11.34.26.63.46.88.2.24.44.43.73.56s.61.2.97.2c.47,0,.89-.09,1.27-.28.38-.19.71-.45.98-.79.27-.34.48-.75.63-1.24s.22-1.02.22-1.62Z"/>
    <path class="cls-1" d="m367.32,220.46h-1.06c-.12,0-.22-.03-.28-.09-.07-.06-.12-.14-.14-.24l-.42-1.98h-3.43l-.91,1.98c-.04.09-.1.16-.19.23-.09.07-.19.1-.3.1h-1.08l4.29-8.81h1.4l2.13,8.81Zm-4.89-3.29h2.77l-.69-3.3c-.02-.13-.05-.27-.08-.43-.03-.16-.06-.34-.09-.53-.07.19-.14.37-.21.54-.07.17-.13.31-.19.44l-1.51,3.29Z"/>
    <path class="cls-1" d="m370.63,211.69c.06.03.11.09.17.19l3.6,6.34c0-.11.02-.21.02-.31,0-.1.02-.2.03-.29l.73-5.97h1.22l-1.09,8.81h-.7c-.11,0-.2-.02-.27-.06-.07-.04-.14-.1-.2-.19l-3.59-6.34c0,.09-.02.18-.02.27s-.01.16-.02.24l-.75,6.09h-1.21l1.08-8.81h.72c.12,0,.21.01.27.04Z"/>
    <path class="cls-1" d="m384.31,220.46h-1.38l.48-3.94h-3.99l-.48,3.94h-1.38l1.08-8.81h1.39l-.48,3.88h3.99l.48-3.88h1.39l-1.09,8.81Z"/>
    <path class="cls-1" d="m391.61,211.69c.06.03.11.09.17.19l3.6,6.34c0-.11.02-.21.02-.31,0-.1.02-.2.03-.29l.73-5.97h1.22l-1.09,8.81h-.7c-.11,0-.2-.02-.27-.06-.07-.04-.14-.1-.2-.19l-3.59-6.34c0,.09-.02.18-.02.27s-.01.16-.02.24l-.75,6.09h-1.21l1.08-8.81h.72c.12,0,.21.01.27.04Z"/>
    <path class="cls-1" d="m402.32,219.45c.19,0,.36,0,.53-.03.16-.02.32-.05.46-.08.15-.04.28-.08.42-.13.13-.05.26-.11.39-.18l.23-1.82h-1.09c-.09,0-.15-.02-.2-.07-.05-.05-.07-.11-.06-.18l.09-.79h2.64l-.43,3.46c-.22.16-.46.3-.69.42-.24.12-.49.22-.75.3-.26.08-.54.14-.83.18s-.6.06-.94.06c-.53,0-1.02-.1-1.46-.29-.44-.19-.81-.46-1.12-.81-.31-.34-.55-.76-.72-1.23-.17-.48-.25-1-.25-1.56,0-.75.12-1.44.36-2.07.24-.63.57-1.17.99-1.62.42-.45.91-.8,1.49-1.06.58-.25,1.2-.38,1.87-.38.35,0,.67.03.96.09s.54.15.77.25c.23.11.44.23.62.37s.35.3.5.46l-.44.58c-.07.11-.16.17-.26.19-.1.02-.2,0-.31-.07-.11-.07-.22-.14-.33-.22s-.24-.15-.39-.22c-.15-.07-.32-.13-.52-.17s-.43-.07-.7-.07c-.47,0-.91.09-1.3.28s-.73.44-1.01.78c-.28.34-.5.75-.66,1.22-.15.48-.23,1.01-.23,1.59,0,.44.06.84.17,1.18.11.35.27.64.48.89.21.24.46.43.75.56.29.13.62.2.98.2Z"/>
    <path class="cls-1" d="m413.83,220.46h-1.38l.48-3.94h-3.99l-.48,3.94h-1.38l1.08-8.81h1.39l-.48,3.88h3.99l.48-3.88h1.39l-1.09,8.81Z"/>
    <path class="cls-1" d="m417.44,220.46h-1.38l1.08-8.81h1.38l-1.08,8.81Z"/>
    <path class="cls-1" d="m425.82,211.65l-.14,1.12h-3.69l-.34,2.71h2.95l-.14,1.08h-2.94l-.35,2.78h3.71l-.14,1.12h-5.08l1.08-8.81h5.08Zm-2.88,10.35c0,.11-.02.21-.07.31-.05.1-.1.18-.18.26s-.16.13-.25.17c-.1.04-.19.06-.3.06s-.2-.02-.29-.06c-.09-.04-.17-.1-.24-.17s-.13-.16-.17-.26-.06-.2-.06-.31.02-.21.06-.31.1-.18.17-.26c.07-.08.15-.13.25-.18.09-.04.19-.06.29-.06s.2.02.3.06c.1.04.18.1.25.17.07.07.13.16.17.26.04.1.06.2.06.32Zm2.45-11.01h-.87c-.05,0-.12-.01-.18-.03-.07-.02-.14-.08-.2-.18l-.47-.74s-.04-.07-.06-.12l-.09.12-.64.74c-.09.1-.17.16-.24.18-.08.02-.14.03-.19.03h-.84l1.54-1.68h1.09l1.16,1.68Z"/>
    <path class="cls-1" d="m428.24,217.25l-.39,3.21h-1.37l1.08-8.81h2.56c.48,0,.9.06,1.25.17.35.12.64.28.87.49.23.21.4.46.51.75.11.29.17.61.17.96,0,.47-.07.9-.22,1.29-.15.39-.37.73-.66,1.02s-.66.51-1.09.67-.94.24-1.51.24h-1.19Zm.56-4.52l-.42,3.43h1.19c.33,0,.61-.05.86-.15.25-.1.45-.24.61-.42.16-.18.29-.39.37-.64s.12-.52.12-.81c0-.43-.13-.78-.38-1.03-.25-.26-.64-.39-1.17-.39h-1.18Z"/>
  </g>
  <g>
    <polygon class="cls-1" points="108.4 199.51 85.74 199.51 104.21 96.56 126.86 96.56 108.4 199.51"/>
    <polygon class="cls-1" points="142.1 170.82 119.44 170.82 134.53 83.4 157.18 83.4 142.1 170.82"/>
    <polygon class="cls-1" points="183.7 91.65 161.05 91.65 165.29 68 187.94 68 183.7 91.65"/>
    <polygon class="cls-1" points="85.31 175.05 62.66 175.05 66.9 151.4 89.55 151.4 85.31 175.05"/>
    <polygon class="cls-1" points="176.26 137.94 153.61 137.94 160.15 96.63 182.81 96.63 176.26 137.94"/>
  </g>
</svg>